/* XPM */
static char *c0ef39b565e349e1a991de635fde84b9biVR545jo4AREUaz[] = {
/* columns rows colors chars-per-pixel */
"28 44 6 1 ",
"  c black",
". c #F87800",
"X c #F8B800",
"o c #F8F800",
"O c #FBE1B4",
"+ c #F8F8F8",
/* pixels */
"OOOOOOOOO           OOOOOOOO",
"OOOOOOOOO           OOOOOOOO",
"OOOOOO   ++++++++XXX   OOOOO",
"OOOOOO   ++++++++XXX   OOOOO",
"OOOOOO   ++++++++XXX   OOOOO",
"OOO   +++oooooooooooXXX  OOO",
"OOO   +++oooooooooooXXX  OOO",
"OOO   +++oooooooooooXXX  OOO",
"OOO   +++oo++++++oooXXX  OOO",
"OOO   +++oo++++++oooXXX  OOO",
"OOO   +++oo++++++oooXXX  OOO",
"   +++ooo++oooXXX   oooXX   ",
"   +++ooo++oooXXX   oooXX   ",
"   +++ooo++oooXXX   oooXX   ",
"   +++ooo++oooXXX   oooXX   ",
"   +++ooo++oooXXX   oooXX   ",
"   +++ooo++ooo...   oooXX   ",
"   +++ooo++ooo...   oooXX   ",
"   +++ooo++ooo...   oooXX   ",
"   +++ooo++ooo...   ooo..   ",
"   +++ooo++ooo...   ooo..   ",
"   +++ooo++ooo...   ooo..   ",
"   +++ooo++ooo...   ooo..   ",
"   +++ooo++ooo...   ooo..   ",
"   +++ooo++ooo...   ooo..   ",
"   +++ooo++ooo...   ooo..   ",
"   +++ooo++ooo...   ooo..   ",
"   +++ooo++XXX...   ooo..   ",
"   +++ooo++XXX...   ooo..   ",
"   +++ooo++XXX...   ooo..   ",
"   +++ooo++......   XXX..   ",
"   +++ooo++......   XXX..   ",
"   +++ooo++......   XXX..   ",
"OOO   ooooo      ooo...  OOO",
"OOO   ooooo      ooo...  OOO",
"OOO   ooooo      ooo...  OOO",
"OOO   ...ooooooooXXX...  OOO",
"OOO   ...ooooooooXXX...  OOO",
"OOOOOO   ...........   OOOOO",
"OOOOOO   ...........   OOOOO",
"OOOOOO   ...........   OOOOO",
"OOOOOOOOO           OOOOOOOO",
"OOOOOOOOO           OOOOOOOO",
"OOOOOOOOO           OOOOOOOO"
};
