/* XPM */
static char *db6626b7392b467bccba87ea963de0d8XubQ5vcepFqwagCI[] = {
/* columns rows colors chars-per-pixel */
"25 47 6 1 ",
"  c black",
". c #F87800",
"X c #F8B800",
"o c #F8F800",
"O c #0468BF",
"+ c #F8F8F8",
/* pixels */
"OOOOOOOOOOOOOOOOOOOOOOOOO",
"OOOOOOOOOOOOOOOOOOOOOOOOO",
"OOOOOOOOOOOOOOOOOOOOOOOOO",
"OOOOOOOOOOOOOOOOOOOOOOOOO",
"OOOOOOOOOOOOOOOOOOOOOOOOO",
"OOOOOOOOOO     OOOOOOOOOO",
"OOOOOOOOOO     OOOOOOOOOO",
"OOOOOOOOOO     OOOOOOOOOO",
"OOOOOOOO  ++...  OOOOOOOO",
"OOOOOOOO  ++...  OOOOOOOO",
"OOOOOOOO  .....  OOOOOOOO",
"OOOOOOOO  .....  OOOOOOOO",
"OOOOOOOO  XXXXX  OOOOOOOO",
"OOOOOOOO  XXXXX  OOOOOOOO",
"OOOOOOOO  XXXXX  OOOOOOOO",
"OOOOOOOO  XXXXX  OOOOOOOO",
"OOOOOOOO  XXXXX  OOOOOOOO",
"OOOOOOOO  ooooo  OOOOOOOO",
"OOOOOOOO  ooooo  OOOOOOOO",
"OOOOOOOO  ooooo  OOOOOOOO",
"OOOOOOOO  ooooo  OOOOOOOO",
"OOOOOOOO  ooooo  OOOOOOOO",
"OOOOOOOO  ooooo  OOOOOOOO",
"OOOOOOOO  ooooo  OOOOOOOO",
"OOOOOOOO  ooooo  OOOOOOOO",
"OOOOOOOO  ooooo  OOOOOOOO",
"OOOOOOOO  ooooo  OOOOOOOO",
"OOOOOOOO  ooooo  OOOOOOOO",
"OOOOOOOO  ooooo  OOOOOOOO",
"OOOOOOOO  ooooo  OOOOOOOO",
"OOOOOOOO  XXXXX  OOOOOOOO",
"OOOOOOOO  XXXXX  OOOOOOOO",
"OOOOOOOO  XXXXX  OOOOOOOO",
"OOOOOOOO  XXXXX  OOOOOOOO",
"OOOOOOOO  XXXXX  OOOOOOOO",
"OOOOOOOO  .....  OOOOOOOO",
"OOOOOOOO  .....  OOOOOOOO",
"OOOOOOOO  .....  OOOOOOOO",
"OOOOOOOO  .....  OOOOOOOO",
"OOOOOOOOOO     OOOOOOOOOO",
"OOOOOOOOOO     OOOOOOOOOO",
"OOOOOOOOOOOOOOOOOOOOOOOOO",
"OOOOOOOOOOOOOOOOOOOOOOOOO",
"OOOOOOOOOOOOOOOOOOOOOOOOO",
"OOOOOOOOOOOOOOOOOOOOOOOOO",
"OOOOOOOOOOOOOOOOOOOOOOOOO",
"OOOOOOOOOOOOOOOOOOOOOOOOO"
};
