/* XPM */
static char *_410dd4c5ee64eb3a9ce58708532458b023r90O5nacyquJY[] = {
/* columns rows colors chars-per-pixel */
"25 47 6 1 ",
"  c black",
". c #F87800",
"X c #F8B800",
"o c #F8F800",
"O c #0468BF",
"+ c #F8F8F8",
/* pixels */
"OOOOOOOOOOOOOOOOOOOOOOOOO",
"OOOOOOOOOOOOOOOOOOOOOOOOO",
"OOOOOOOOOOOOOOOOOOOOOOOOO",
"OOOOOOOOOOOOOOOOOOOOOOOOO",
"OOOOOOOOOOOOOOOOOOOOOOOOO",
"OOOOOOOO         OOOOOOOO",
"OOOOOOOO         OOOOOOOO",
"OOOOOOOO         OOOOOOOO",
"OOOOOO  +++++++XX  OOOOOO",
"OOOOOO  +++++++XX  OOOOOO",
"OOO   ++oooooooooXX  OOOO",
"OOO   ++oooooooooXX  OOOO",
"OOO   ++oo+++++ooXX  OOOO",
"OOO   ++oo+++++ooXX  OOOO",
"O  +++oo++ooXXX  ooXX   O",
"O  +++oo++ooXXX  ooXX   O",
"O  +++oo++ooXXX  ooXX   O",
"O  +++oo++ooXXX  ooXX   O",
"O  +++oo++ooXXX  ooXX   O",
"O  +++oo++oo...  ooXX   O",
"O  +++oo++oo...  ooXX   O",
"O  +++oo++oo...  oo..   O",
"O  +++oo++oo...  oo..   O",
"O  +++oo++oo...  oo..   O",
"O  +++oo++oo...  oo..   O",
"O  +++oo++oo...  oo..   O",
"O  +++oo++oo...  oo..   O",
"O  +++oo++oo...  oo..   O",
"O  +++oo++XX...  oo..   O",
"O  +++oo++XX...  oo..   O",
"O  +++oo++.....  XX..   O",
"O  +++oo++.....  XX..   O",
"OOO   oooo     oo..  OOOO",
"OOO   oooo     oo..  OOOO",
"OOO   oooo     oo..  OOOO",
"OOO   ..oooooooXX..  OOOO",
"OOO   ..oooooooXX..  OOOO",
"OOOOOO  .........  OOOOOO",
"OOOOOO  .........  OOOOOO",
"OOOOOOOO         OOOOOOOO",
"OOOOOOOO         OOOOOOOO",
"OOOOOOOOOOOOOOOOOOOOOOOOO",
"OOOOOOOOOOOOOOOOOOOOOOOOO",
"OOOOOOOOOOOOOOOOOOOOOOOOO",
"OOOOOOOOOOOOOOOOOOOOOOOOO",
"OOOOOOOOOOOOOOOOOOOOOOOOO",
"OOOOOOOOOOOOOOOOOOOOOOOOO"
};
