/* XPM */
static char *_6bde4177fc04356daff3ffd3b2b0258M6ODkoixLGs6n5lj[] = {
/* columns rows colors chars-per-pixel */
"44 44 5 1 ",
"  c black",
". c #885818",
"X c #F8D870",
"o c #FCE1B4",
"O c #F8F8F8",
/* pixels */
"oooooo                                 ooooo",
"oooooo                                 ooooo",
"ooo   OOOOOXXX......................      oo",
"ooo   OOOOOXXX......................      oo",
"ooo   OOOOOXXX......................      oo",
"   OOOXX...............................     ",
"   OOOXX...............................     ",
"   OOOXX...............................     ",
"   XXX.................................     ",
"   XXX.................................     ",
"   XXX.................................     ",
"   XXX.................................     ",
"   XXX.................................     ",
"   ....................................     ",
"   ....................................     ",
"   ....................................     ",
"   XXX.....   .................  ......     ",
"   XXX.....   .................  ......     ",
"   XXX.....   .................  ......     ",
"   ...........   ...........   ........     ",
"   ...........   ...........   ........     ",
"   ...........   ...........   ........     ",
"   ..............  ......   ...........     ",
"   ..............  ......   ...........     ",
"   ..............  ......   ...........     ",
"   ....................................     ",
"   ....................................     ",
"   ....................................     ",
"   ....................................     ",
"   ....................................     ",
"   ....................................     ",
"   ....................................     ",
"   ....................................     ",
"   ....................................     ",
"   ....................................     ",
"   ....................................     ",
"      ..............................        ",
"      ..............................        ",
"ooo                                       oo",
"ooo                                       oo",
"ooo                                       oo",
"oooooo                                 ooooo",
"oooooo                                 ooooo",
"oooooo                                 ooooo"
};
