/* XPM */
static char * idle_xpm[] = {
"16 32 14 1",
" 	c #007474",
".	c #500000",
"+	c #F84070",
"@	c #F8D870",
"#	c #B02860",
"$	c #F8F8F8",
"%	c #D8A038",
"&	c #000000",
"*	c #F87068",
"=	c #F8D0C0",
"-	c #885818",
";	c #203088",
">	c #408098",
",	c #80D8C8",
"                ",
"                ",
"                ",
"    .....       ",
"   .++@++..     ",
"   .#$@%#++.    ",
"  &&&&&&&##+.   ",
" &&&&&&&&&&#+.  ",
" &&&&&&&&&&&##. ",
"  &&$$*$$*&&##. ",
"    $&=&$**&&=* ",
"  -=$&=&$=*&&=-*",
"  -===**==&&&*-*",
"  -****-&==&*** ",
" &&&&&&&&&***&& ",
"  &&&&&&==**&&  ",
"   -*******-&   ",
"    ---..##.    ",
"   -$$$-#.++.   ",
"  -$$$$$-+++#.  ",
"  -$$$$$-++##.  ",
"   -$$$-#+##.;  ",
"   $---..##.;;  ",
"   ;>,,,...;>;  ",
"   ;>,,,,,>>>;  ",
"    ;>;,,>>>;   ",
"    ;>;>>>>>;   ",
"     ;;;;;;;    ",
"    &-&-----    ",
"   &@&@----&    ",
"   &&&&&&&&&    ",
"                "};
