/* XPM */
static char *_d047abefa1b4c45c825008f17be3f547UvZR1a1rhGCshGZ[] = {
/* columns rows colors chars-per-pixel */
"61 123 14 1 ",
"  c black",
". c #500000",
"X c #885818",
"o c #B02860",
"O c #F84070",
"+ c #F87068",
"@ c #D8A038",
"# c #F8D870",
"$ c #203088",
"% c #408098",
"& c #FCE1B3",
"* c #80D8C8",
"= c #F8D0C0",
"- c #F8F8F8",
/* pixels */
"&&&&&&&&&&&&&&&&&&&&&&&&&&&&&&&&&&&&&&&&&&&&&&&&&&&&&&&&&&&&&",
"&&&&&&&&&&&&&&&&&&&&&&&&&&&&&&&&&&&&&&&&&&&&&&&&&&&&&&&&&&&&&",
"&&&&&&&&&&&&&&&&&&&&&&&&&&&&&&&&&&&&&&&&&&&&&&&&&&&&&&&&&&&&&",
"&&&&&&&&&&&&&&&&&&&&&&&&&&&&&&&&&&&&&&&&&&&&&&&&&&&&&&&&&&&&&",
"&&&&&&&&&&&&&&&&&&&&&&&&&&&&&&&&&&&&&&&&&&&&&&&&&&&&&&&&&&&&&",
"&&&&&&&&&&&&&&&&&&&&&&&&&&&&&&&&&&&&&&&&&&&&&&&&&&&&&&&&&&&&&",
"&&&&&&&&&&&&&&&&&&&&&&&&&&&&&&&&&&&&&&&&&&&&&&&&&&&&&&&&&&&&&",
"&&&&&&&&&&&&&&&&&&&&&&&&&&&&&&&&&&&&&&&&&&&&&&&&&&&&&&&&&&&&&",
"&&&&&&&&&&&&&&&&&&&&&&&&&&&&&&&&&&&&&&&&&&&&&&&&&&&&&&&&&&&&&",
"&&&&&&&&&&&&&&&&&&&&&&&&&&&&&&&&&&&&&&&&&&&&&&&&&&&&&&&&&&&&&",
"&&&&&&&&&&&&&&&&&&&&&&&&&&&&&&&&&&&&&&&&&&&&&&&&&&&&&&&&&&&&&",
"&&&&&&&&&&&&&&&....................&&&&&&&&&&&&&&&&&&&&&&&&&&",
"&&&&&&&&&&&&&&&....................&&&&&&&&&&&&&&&&&&&&&&&&&&",
"&&&&&&&&&&&&&&&....................&&&&&&&&&&&&&&&&&&&&&&&&&&",
"&&&&&&&&&&&....OOOOOOOO####OOOOOOOO........&&&&&&&&&&&&&&&&&&",
"&&&&&&&&&&&....OOOOOOOO####OOOOOOOO........&&&&&&&&&&&&&&&&&&",
"&&&&&&&&&&&....OOOOOOOO####OOOOOOOO........&&&&&&&&&&&&&&&&&&",
"&&&&&&&&&&&....OOOOOOOO####OOOOOOOO........&&&&&&&&&&&&&&&&&&",
"&&&&&&&&&&&....oooo----####@@@@ooooOOOOOOOO....&&&&&&&&&&&&&&",
"&&&&&&&&&&&....oooo----####@@@@ooooOOOOOOOO....&&&&&&&&&&&&&&",
"&&&&&&&&&&&....oooo----####@@@@ooooOOOOOOOO....&&&&&&&&&&&&&&",
"&&&&&&&&&&&....oooo----####@@@@ooooOOOOOOOO....&&&&&&&&&&&&&&",
"&&&&&&&&                           ooooooooOOOO...&&&&&&&&&&&",
"&&&&&&&&                           ooooooooOOOO...&&&&&&&&&&&",
"&&&&&&&&                           ooooooooOOOO...&&&&&&&&&&&",
"&&&&&&&&                           ooooooooOOOO...&&&&&&&&&&&",
"&&&&                                       ooooOOO....&&&&&&&",
"&&&&                                       ooooOOO....&&&&&&&",
"&&&&                                       ooooOOO....&&&&&&&",
"&&&&                                       ooooOOO....&&&&&&&",
"&&&&                                           ooooooo....&&&",
"&&&&                                           ooooooo....&&&",
"&&&&                                           ooooooo....&&&",
"&&&&                                           ooooooo....&&&",
"&&&&&&&&       --------++++--------++++        ooooooo....&&&",
"&&&&&&&&       --------++++--------++++        ooooooo....&&&",
"&&&&&&&&       --------++++--------++++        ooooooo....&&&",
"&&&&&&&&       --------++++--------++++        ooooooo....&&&",
"&&&&&&&&&&&&&&&----    ====    ----++++++++       ====++++&&&",
"&&&&&&&&&&&&&&&----    ====    ----++++++++       ====++++&&&",
"&&&&&&&&&&&&&&&----    ====    ----++++++++       ====++++&&&",
"&&&&&&&&&&&&&&&----    ====    ----++++++++       ====++++&&&",
"&&&&&&&&XXX====----    ====    ----====++++       ====XXXX+++",
"&&&&&&&&XXX====----    ====    ----====++++       ====XXXX+++",
"&&&&&&&&XXX====----    ====    ----====++++       ====XXXX+++",
"&&&&&&&&XXX====----    ====    ----====++++       ====XXXX+++",
"&&&&&&&&XXX============++++++++========           ++++XXXX+++",
"&&&&&&&&XXX============++++++++========           ++++XXXX+++",
"&&&&&&&&XXX============++++++++========           ++++XXXX+++",
"&&&&&&&&XXX============++++++++========           ++++XXXX+++",
"&&&&&&&&XXX++++++++++++++++XXXX    ========    +++++++++++&&&",
"&&&&&&&&XXX++++++++++++++++XXXX    ========    +++++++++++&&&",
"&&&&&&&&XXX++++++++++++++++XXXX    ========    +++++++++++&&&",
"&&&&                                   +++++++++++        &&&",
"&&&&                                   +++++++++++        &&&",
"&&&&                                   +++++++++++        &&&",
"&&&&                                   +++++++++++        &&&",
"&&&&&&&&                       ========++++++++       &&&&&&&",
"&&&&&&&&                       ========++++++++       &&&&&&&",
"&&&&&&&&                       ========++++++++       &&&&&&&",
"&&&&&&&&                       ========++++++++       &&&&&&&",
"&&&&&&&&&&&XXXX++++++++++++++++++++++++++++XXXX   &&&&&&&&&&&",
"&&&&&&&&&&&XXXX++++++++++++++++++++++++++++XXXX   &&&&&&&&&&&",
"&&&&&&&&&&&XXXX++++++++++++++++++++++++++++XXXX   &&&&&&&&&&&",
"&&&&&&&&&&&XXXX++++++++++++++++++++++++++++XXXX   &&&&&&&&&&&",
"&&&&&&&&&&&&&&&XXXXXXXXXXXX........oooooooo....&&&&&&&&&&&&&&",
"&&&&&&&&&&&&&&&XXXXXXXXXXXX........oooooooo....&&&&&&&&&&&&&&",
"&&&&&&&&&&&&&&&XXXXXXXXXXXX........oooooooo....&&&&&&&&&&&&&&",
"&&&&&&&&&&&&&&&XXXXXXXXXXXX........oooooooo....&&&&&&&&&&&&&&",
"&&&&&&&&&&&XXXX------------XXXXoooo....OOOOOOOO...&&&&&&&&&&&",
"&&&&&&&&&&&XXXX------------XXXXoooo....OOOOOOOO...&&&&&&&&&&&",
"&&&&&&&&&&&XXXX------------XXXXoooo....OOOOOOOO...&&&&&&&&&&&",
"&&&&&&&&&&&XXXX------------XXXXoooo....OOOOOOOO...&&&&&&&&&&&",
"&&&&&&&&XXX--------------------XXXXOOOOOOOOOOOOooo....&&&&&&&",
"&&&&&&&&XXX--------------------XXXXOOOOOOOOOOOOooo....&&&&&&&",
"&&&&&&&&XXX--------------------XXXXOOOOOOOOOOOOooo....&&&&&&&",
"&&&&&&&&XXX--------------------XXXXOOOOOOOOOOOOooo....&&&&&&&",
"&&&&&&&&XXX--------------------XXXXOOOOOOOOooooooo....&&&&&&&",
"&&&&&&&&XXX--------------------XXXXOOOOOOOOooooooo....&&&&&&&",
"&&&&&&&&XXX--------------------XXXXOOOOOOOOooooooo....&&&&&&&",
"&&&&&&&&XXX--------------------XXXXOOOOOOOOooooooo....&&&&&&&",
"&&&&&&&&&&&XXXX------------XXXXooooOOOOoooooooo...$$$$&&&&&&&",
"&&&&&&&&&&&XXXX------------XXXXooooOOOOoooooooo...$$$$&&&&&&&",
"&&&&&&&&&&&XXXX------------XXXXooooOOOOoooooooo...$$$$&&&&&&&",
"&&&&&&&&&&&XXXX------------XXXXooooOOOOoooooooo...$$$$&&&&&&&",
"&&&&&&&&&&&----XXXXXXXXXXXX........oooooooo....$$$$$$$&&&&&&&",
"&&&&&&&&&&&----XXXXXXXXXXXX........oooooooo....$$$$$$$&&&&&&&",
"&&&&&&&&&&&----XXXXXXXXXXXX........oooooooo....$$$$$$$&&&&&&&",
"&&&&&&&&&&&$$$$%%%%************............$$$$%%%$$$$&&&&&&&",
"&&&&&&&&&&&$$$$%%%%************............$$$$%%%$$$$&&&&&&&",
"&&&&&&&&&&&$$$$%%%%************............$$$$%%%$$$$&&&&&&&",
"&&&&&&&&&&&$$$$%%%%************............$$$$%%%$$$$&&&&&&&",
"&&&&&&&&&&&$$$$%%%%********************%%%%%%%%%%%$$$$&&&&&&&",
"&&&&&&&&&&&$$$$%%%%********************%%%%%%%%%%%$$$$&&&&&&&",
"&&&&&&&&&&&$$$$%%%%********************%%%%%%%%%%%$$$$&&&&&&&",
"&&&&&&&&&&&$$$$%%%%********************%%%%%%%%%%%$$$$&&&&&&&",
"&&&&&&&&&&&&&&&$$$$%%%%$$$$********%%%%%%%%%%%%$$$&&&&&&&&&&&",
"&&&&&&&&&&&&&&&$$$$%%%%$$$$********%%%%%%%%%%%%$$$&&&&&&&&&&&",
"&&&&&&&&&&&&&&&$$$$%%%%$$$$********%%%%%%%%%%%%$$$&&&&&&&&&&&",
"&&&&&&&&&&&&&&&$$$$%%%%$$$$********%%%%%%%%%%%%$$$&&&&&&&&&&&",
"&&&&&&&&&&&&&&&$$$$%%%%$$$$%%%%%%%%%%%%%%%%%%%%$$$&&&&&&&&&&&",
"&&&&&&&&&&&&&&&$$$$%%%%$$$$%%%%%%%%%%%%%%%%%%%%$$$&&&&&&&&&&&",
"&&&&&&&&&&&&&&&$$$$%%%%$$$$%%%%%%%%%%%%%%%%%%%%$$$&&&&&&&&&&&",
"&&&&&&&&&&&&&&&$$$$%%%%$$$$%%%%%%%%%%%%%%%%%%%%$$$&&&&&&&&&&&",
"&&&&&&&&&&&&&&&&&&&$$$$$$$$$$$$$$$$$$$$$$$$$$$$&&&&&&&&&&&&&&",
"&&&&&&&&&&&&&&&&&&&$$$$$$$$$$$$$$$$$$$$$$$$$$$$&&&&&&&&&&&&&&",
"&&&&&&&&&&&&&&&&&&&$$$$$$$$$$$$$$$$$$$$$$$$$$$$&&&&&&&&&&&&&&",
"&&&&&&&&&&&&&&&&&&&$$$$$$$$$$$$$$$$$$$$$$$$$$$$&&&&&&&&&&&&&&",
"&&&&&&&&&&&&&&&    XXXX    XXXXXXXXXXXXXXXXXXXX&&&&&&&&&&&&&&",
"&&&&&&&&&&&&&&&    XXXX    XXXXXXXXXXXXXXXXXXXX&&&&&&&&&&&&&&",
"&&&&&&&&&&&&&&&    XXXX    XXXXXXXXXXXXXXXXXXXX&&&&&&&&&&&&&&",
"&&&&&&&&&&&&&&&    XXXX    XXXXXXXXXXXXXXXXXXXX&&&&&&&&&&&&&&",
"&&&&&&&&&&&    ####    ####XXXXXXXXXXXXXXXX    &&&&&&&&&&&&&&",
"&&&&&&&&&&&    ####    ####XXXXXXXXXXXXXXXX    &&&&&&&&&&&&&&",
"&&&&&&&&&&&    ####    ####XXXXXXXXXXXXXXXX    &&&&&&&&&&&&&&",
"&&&&&&&&&&&    ####    ####XXXXXXXXXXXXXXXX    &&&&&&&&&&&&&&",
"&&&&&&&&&&&                                    &&&&&&&&&&&&&&",
"&&&&&&&&&&&                                    &&&&&&&&&&&&&&",
"&&&&&&&&&&&                                    &&&&&&&&&&&&&&",
"&&&&&&&&&&&                                    &&&&&&&&&&&&&&",
"&&&&&&&&&&&&&&&&&&&&&&&&&&&&&&&&&&&&&&&&&&&&&&&&&&&&&&&&&&&&&",
"&&&&&&&&&&&&&&&&&&&&&&&&&&&&&&&&&&&&&&&&&&&&&&&&&&&&&&&&&&&&&",
"&&&&&&&&&&&&&&&&&&&&&&&&&&&&&&&&&&&&&&&&&&&&&&&&&&&&&&&&&&&&&"
};
