/* XPM */
static char *_a15953b37bb4cf2d238f0eb2acdb29b6UIlkvISS1n3E3rT[] = {
/* columns rows colors chars-per-pixel */
"47 47 15 1 ",
"  c black",
". c #500000",
"X c #005454",
"o c #007474",
"O c #885818",
"+ c #B02860",
"@ c #F84070",
"# c #F87068",
"$ c #D8A038",
"% c #F8D870",
"& c #203088",
"* c #408098",
"= c #80D8C8",
"- c #F8D0C0",
"; c #F8F8F8",
/* pixels */
"XXXXXXoooooooooooooooooooooooooooooooooooooXXXX",
"XXXXXXoooooooooo...........ooooooooooooooooXXXX",
"XXXXXXoooooooooo...........ooooooooooooooooXXXX",
"XXXXXXooooooo...@@%%@@@@@@@.....oooooooooooXXXX",
"XXXXXXooooooo...@@%%@@@@@@@.....oooooooooooXXXX",
"XXXXXXooooooo...@@%%@@@@@@@.....oooooooooooXXXX",
"XXXXXXooooooo...;;%%$$$++++@@@@@..oooooooooXXXX",
"XXXXXXooooooo...;;%%$$$++++@@@@@..oooooooooXXXX",
"XXXXXXooooo              ++++@@@++..oooooooXXXX",
"XXXXXXooooo              ++++@@@++..oooooooXXXX",
"XXXXXXooo                    +++++++...ooooXXXX",
"XXXXXXooo                    +++++++...ooooXXXX",
"XXXXXXooo                    +++++++...ooooXXXX",
"XXXXXXoooooooooo##  ###  ##       --...ooooXXXX",
"XXXXXXoooooooooo##  ###  ##       --...ooooXXXX",
"XXXXXXoooooOOOOO--  ---  --##   --OO---..ooXXXX",
"XXXXXXoooooOOOOO--  ---  --##   --OO---..ooXXXX",
"XXXXXXoooOO----------------     --OO###..ooXXXX",
"XXXXXXoooOO----------------     --OO###..ooXXXX",
"XXXXXXoooOO############  ----   --##   ..ooXXXX",
"XXXXXXoooOO############  ----   --##   ..ooXXXX",
"XXXXXXoooOO############  ----   --##   ..ooXXXX",
"XXXXXXooooo                --#####     ooooXXXX",
"XXXXXXooooo                --#####     ooooXXXX",
"XXXXXXooooooo          #########OO  oooooooXXXX",
"XXXXXXooooooo          #########OO  oooooooXXXX",
"XXXXXXoooooOOOOOOO&&OOOOOOOOOOOO&&       ooXXXX",
"XXXXXXoooooOOOOOOO&&OOOOOOOOOOOO&&       ooXXXX",
"XXXXXXoooooOOOOOOO&&OOOOOOOOOOOO&&       ooXXXX",
"XXXXXXOOOOO;;;;;..@@@@@@@OO==*****&&OOO%%  XXXX",
"XXXXXXOOOOO;;;;;..@@@@@@@OO==*****&&OOO%%  XXXX",
"XXXXXXOOO;;;;;;;..@@@@@@@OO==*****&&OOO  ooXXXX",
"XXXXXXOOO;;;;;;;..@@@@@@@OO==*****&&OOO  ooXXXX",
"XXXXXXOOO;;;;;;;..OOOOOOO==*****&&&&   ooooXXXX",
"XXXXXXOOO;;;;;;;..OOOOOOO==*****&&&&   ooooXXXX",
"XXXXXXOOO;;;;;;;..OOOOOOO==*****&&&&   ooooXXXX",
"XXXXXXoooOOOOOOO**;;;;;==*********     ooooXXXX",
"XXXXXXoooOOOOOOO**;;;;;==*********     ooooXXXX",
"XXXXXXoooooooooooo&&************&&OOOOO  ooXXXX",
"XXXXXXoooooooooooo&&************&&OOOOO  ooXXXX",
"XXXXXXoooooooooooooo&&&&&****&&&OOOOOOO  ooXXXX",
"XXXXXXoooooooooooooo&&&&&****&&&OOOOOOO  ooXXXX",
"XXXXXXoooooooooooooo&&&&&****&&&OOOOOOO  ooXXXX",
"XXXXXXooooooooooooooooooo&&&&&&&    %%%  ooXXXX",
"XXXXXXooooooooooooooooooo&&&&&&&    %%%  ooXXXX",
"XXXXXXoooooooooooooooooooooooooooooo   ooooXXXX",
"XXXXXXoooooooooooooooooooooooooooooo   ooooXXXX"
};
