/* XPM */
static char *eb607346b7544e848eef7359f2e25ad0kJGglYnxDr29kMJd[] = {
/* columns rows colors chars-per-pixel */
"47 47 15 1 ",
"  c black",
". c #500000",
"X c #005454",
"o c #007474",
"O c #885818",
"+ c #B02860",
"@ c #F84070",
"# c #F87068",
"$ c #D8A038",
"% c #F8D870",
"& c #203088",
"* c #408098",
"= c #80D8C8",
"- c #F8D0C0",
"; c #F8F8F8",
/* pixels */
"oooooooooooooooooooooooooooooooooooooXXXXXXXXXX",
"oooooooooooooooooooooooo....oooooooooXXXXXXXXXX",
"ooooooooooooooooooo.........oooooooooXXXXXXXXXX",
"oooooooooooooooo..........@@..oooooooXXXXXXXXXX",
"oooooooooooooooo....@@@%%%@@...oooooooXXXXXXXXX",
"ooooooooooooooo..@@@@@@@%%@@...oooooooXXXXXXXXX",
"oooooooooooo.....@@@@@$$%%;;;..oooooooXXXXXXXXX",
"Xooooooooooo.....+++++$$%%;;;.   oooooXXXXXXXXX",
"Xoooooooooo.@@@@@+++++$$          ooooXXXXXXXXX",
"Xooooooooo...@@@@+++                ooXXXXXXXXX",
"Xooooooooo...@@+++++                oooXXXXXXXX",
"Xooooooo...++@@+++++              oooooXXXXXXXX",
"Xooooooo...++@@             ##oooooooooXXXXXXXX",
"XXooooooo+++++++       ##  ###oooooooooXXXXXXXX",
"XXoooo...+++++++  ###  ##   ##OOOOOooooXXXXXXXX",
"XXooooo..++       ###  ##   --OOOOOoooooXXXXXXX",
"XXooooo..--        --  ---  --OO---OOoooXXXXXXX",
"XXooooo..--- -  ###--  --- --------OOOooXXXXXXX",
"XXooooo.--OO--   ##---------------#OOOooXXXXXXX",
"XXXoo..---OO--     ----------#######OOooXXXXXXX",
"XXXoo...--OO---    ---- ############ooooXXXXXXX",
"XXXoo...##OO---  -----  #######     oooooXXXXXX",
"XXXooo..##OO#--  -----  #           oooooXXXXXX",
"XXXooo..  ###--  ---              oooooooXXXXXX",
"XXXXoo..   ##-####--              oooooooXXXXXX",
"XXXXoo..     #####-- ####         OOOooooXXXXXX",
"XXXXooooo    ############    &OOOOOOOooooXXXXXX",
"XXXXooooo o  OOO#######OOOOO&&OOOOOO;OOOOOXXXXX",
"XXXXooooooo   OO##OOOOOOOOOO&&O.;;;;;OOOOOXXXXX",
"XXXXooooooo oo&&OOOOOOOOO@@@@@...;;;;O;;OOXXXXX",
"XXXXXooooooooo&&OOOO=OO@@@@@@@...;;;;;;;OOXXXXX",
"XXXXXooooooooo&&&**==OOO@@@@@@@..;;;;;;;OOXXXXX",
"XXXXXooooooooo&&&**==OOO@@@@@@@..;;;;;;;OOOXXXX",
"XXXXXoooooooooo&***===OO@@@@@OO..;;;;;;;OOoXXXX",
"XXXXXooooo     ****===O=OOOOOOO..;;;;OOOOooXXXX",
"XXXXXooooo     *******==OOOOOOO***OOOOOOOooXXXX",
"XXXXXXoooo  OOO*******==O==;;;;***OOOOOooooXXXX",
"XXXXXXoo   OOOO**********==;;;;;*ooooooooooXXXX",
"XXXXXXoo   OOOO&&&*******==**&&&ooooooooooooXXX",
"XXXXXXooo%%OOOOO&&************&&ooooooooooooXXX",
"XXXXXX   %%OOOOO&&&&*********&ooooooooooooooXXX",
"XXXXXXX  %%     &&&&&***&&&&&&ooooooooooooooXXX",
"XXXXXXX         &&&&&&&&&&&&&&ooooooooooooooXXX",
"XXXXXXX     ooooooo&&&&&&&ooooooooooooooooooXXX",
"XXXXXXXoooooooooooo&oooooooooooooooooooooooooXX",
"XXXXXXXooooooooooooooooooooooooooooooooooXXXXXX",
"XXXXXXXooooooooooooooooooooooooooooXXXXXXXXXXXX"
};
