/* XPM */
static char *_55a77949d75416380d05c0c351e411elVbdth5wAMkAquTk[] = {
/* columns rows colors chars-per-pixel */
"47 47 15 1 ",
"  c black",
". c #500000",
"X c #005454",
"o c #007474",
"O c #885818",
"+ c #B02860",
"@ c #F84070",
"# c #F87068",
"$ c #D8A038",
"% c #F8D870",
"& c #203088",
"* c #408098",
"= c #80D8C8",
"- c #F8D0C0",
"; c #F8F8F8",
/* pixels */
"XXXXXoooooooooooooooooooooooooooooooooooooXXXXX",
"XXXXXoooooooooooooooo............oooooooooXXXXX",
"XXXXXoooooooooooooooo............oooooooooXXXXX",
"XXXXXoooooooooooo....@@@@@@@%%%@@..oooooooXXXXX",
"XXXXXoooooooooooo....@@@@@@@%%%@@..oooooooXXXXX",
"XXXXXoooooooooooo....@@@@@@@%%%@@..oooooooXXXXX",
"XXXXXooooooooo...@@@@+++++$$%%%;;..oooooooXXXXX",
"XXXXXooooooooo...@@@@+++++$$%%%;;..oooooooXXXXX",
"XXXXXooooooo..+++@@+++++             oooooXXXXX",
"XXXXXooooooo..+++@@+++++             oooooXXXXX",
"XXXXXooooo..+++++++                     ooXXXXX",
"XXXXXooooo..+++++++                     ooXXXXX",
"XXXXXooooo..+++++++                     ooXXXXX",
"XXXXXooooo..--       ###  ##   ##oooooooooXXXXX",
"XXXXXooooo..--       ###  ##   ##oooooooooXXXXX",
"XXXXXoo...--OO---  ##---  --   --OOOOoooooXXXXX",
"XXXXXoo...--OO---  ##---  --   --OOOOoooooXXXXX",
"XXXXXoo...##OO---    ----------------OOOooXXXXX",
"XXXXXoo...##OO---    ----------------OOOooXXXXX",
"XXXXXoo...  ##---  -----  ###########OOOooXXXXX",
"XXXXXoo...  ##---  -----  ###########OOOooXXXXX",
"XXXXXoo...  ##---  -----  ###########OOOooXXXXX",
"XXXXXooooo    #####--                oooooXXXXX",
"XXXXXooooo    #####--                oooooXXXXX",
"XXXXXooooooo  OOO#########         oooooooXXXXX",
"XXXXXooooooo  OOO#########         oooooooXXXXX",
"XXXXXooooooooo&&&OOOOOOOOOOO&&&OOOOOOoooooXXXXX",
"XXXXXooooooooo&&&OOOOOOOOOOO&&&OOOOOOoooooXXXXX",
"XXXXXooooooooo&&&OOOOOOOOOOO&&&OOOOOOoooooXXXXX",
"XXXXXooooooooo&&&**==OOO@@@@@@@..;;;;OOOOOXXXXX",
"XXXXXooooooooo&&&**==OOO@@@@@@@..;;;;OOOOOXXXXX",
"XXXXXooooo    *****==OOO@@@@@@@..;;;;;;;OOXXXXX",
"XXXXXooooo    *****==OOO@@@@@@@..;;;;;;;OOXXXXX",
"XXXXXoo   OOOO*******===OOOOOOO..;;;;;;;OOXXXXX",
"XXXXXoo   OOOO*******===OOOOOOO..;;;;;;;OOXXXXX",
"XXXXXoo   OOOO*******===OOOOOOO..;;;;;;;OOXXXXX",
"XXXXX  %%%OOOO&&&*******==;;;;;**OOOOOOOooXXXXX",
"XXXXX  %%%OOOO&&&*******==;;;;;**OOOOOOOooXXXXX",
"XXXXX         &&&&&*********&&&oooooooooooXXXXX",
"XXXXX         &&&&&*********&&&oooooooooooXXXXX",
"XXXXXoooooooooooo&&&&&&&&&&&ooooooooooooooXXXXX",
"XXXXXoooooooooooo&&&&&&&&&&&ooooooooooooooXXXXX",
"XXXXXoooooooooooo&&&&&&&&&&&ooooooooooooooXXXXX",
"XXXXXoooooooooooooooooooooooooooooooooooooXXXXX",
"XXXXXoooooooooooooooooooooooooooooooooooooXXXXX",
"XXXXXoooooooooooooooooooooooooooooooooooooXXXXX",
"XXXXXoooooooooooooooooooooooooooooooooooooXXXXX"
};
