/* XPM */
static char *dc2287e86df64f6cbeb52b93d56587f5HSAYHzURfo8feIZ4[] = {
/* columns rows colors chars-per-pixel */
"47 47 15 1 ",
"  c black",
". c #500000",
"X c #005454",
"o c #007474",
"O c #885818",
"+ c #B02860",
"@ c #F84070",
"# c #F87068",
"$ c #D8A038",
"% c #F8D870",
"& c #203088",
"* c #408098",
"= c #80D8C8",
"- c #F8D0C0",
"; c #F8F8F8",
/* pixels */
"XXXXXXXXXXXoooooooooooooooooooooooooooooooooooo",
"XXXXXXXXXXXoooooooooooooooooooooooooooooooooooo",
"XXXXXXXXXXooooooooooooooooo.....ooooooooooooooo",
"XXXXXXXXXXoooooooooooo...oo...........ooooooooo",
"XXXXXXXXXXoooooooooooo.....@@@........ooooooooo",
"XXXXXXXXXXooooooooo...@...@@@@@@@%%%..ooooooooo",
"XXXXXXXXXXooooooooo..@@@@@++@@@@@%%%@@..ooooooo",
"XXXXXXXXXoooooooo..++@@@@@+++++$$%%@@@..ooooooo",
"XXXXXXXXXooooooo...++@@+++++++$$$%%;;;..ooooooo",
"XXXXXXXXXooooo..+++++@@+++++    $%%;;...ooooooo",
"XXXXXXXXXooooo..+++++++ ++++         ...ooooooo",
"XXXXXXXXXoooo...-++++++                   ooooX",
"XXXXXXXXXoooo...--    +                  oooooX",
"XXXXXXXXooo..-----       ##              oooooX",
"XXXXXXXXooo..--OOO--     ##  ###           oooX",
"XXXXXXXXoo...--OO---  ##--#  ###  ##ooo    oooX",
"XXXXXXXXoo...##OO---  ##---  --   ##oooooooooXX",
"XXXXXXXXoo..###OO--     --   --   --OooooooooXX",
"XXXXXXXooo..   ##--     -------  ---OOOOoooooXX",
"XXXXXXXooo..  ###--  -  ------------OOOOoooooXX",
"XXXXXXXooooo   ##--  -----  ------------OooooXX",
"XXXXXXXooooo    #### -----  #####-------OOoooXX",
"XXXXXXXoooooo   #####--     ###########-OOooXXX",
"XXXXXXXooooooo  OO###--        ########OOOooXXX",
"XXXXXXooooooo   OO######             ##OOOooXXX",
"XXXXXXooooooooooOO#########            oooooXXX",
"XXXXXXooooooooo&&&OOOO#####            oooooXXX",
"XXXXXXooooooooo&&&OOOOOOOOO         oooooooXXXX",
"XXXXXXooooooooo&&***OOOOOOOOO&&&O   oooooooXXXX",
"XXXXXooooo   oo&&***==OO@@OOO&&OOOOOOOoooooXXXX",
"XXXXXooooo     ****===OO@@@@@@@OOOOOOOoooooXXXX",
"XXXXXoo   O    ****===OO@@@@@@@..;;;OOoooooXXXX",
"XXXXXoo   OOOO*****==OOO@@@@@@@..;;;;;OOOOoXXXX",
"XXXXX  %%OOOOO*******=OO@@@@@@@..;;;;;OOOOXXXXX",
"XXXXX  %%OOOOO*******==OOOO@@@...;;;;;;;OOXXXXX",
"XXXX   %%OOOOO&&*****==OOOOOOO...;;;;;;;OOXXXXX",
"XXXX        OO&&*******==OOOOO..;;;;;;;OOOXXXXX",
"XXXXo        &&&&&*****==;;;;;*.;;;;;;;OOOXXXXX",
"XXXXoooooo   &&&&&*****==;;;;;**OOOO;;;OOXXXXXX",
"XXXXooooooooooo&&&*********&&;**OOOOOOOooXXXXXX",
"XXXoooooooooooo&&&&&&******&&oooooOOOOOooXXXXXX",
"XXXoooooooooooo&&&&&&&&&&&&&&ooooooooooooXXXXXX",
"XXXoooooooooooooooo&&&&&&&&ooooooooooooooXXXXXX",
"XXXoooooooooooooooooooooo&oooooooooooooooXXXXXX",
"XXXXXoooooooooooooooooooooooooooooooooooXXXXXXX",
"XXXXXXXXXXooooooooooooooooooooooooooooooXXXXXXX",
"XXXXXXXXXXXXXXXXooooooooooooooooooooooooXXXXXXX"
};
