/* XPM */
static char *e897638d774d44df97534bc85bd63ddaXiIT4ZoLRVIkUCTY[] = {
/* columns rows colors chars-per-pixel */
"50 50 5 1 ",
"  c black",
". c #885818",
"X c #F8D870",
"o c #0468BF",
"O c #F8F8F8",
/* pixels */
"oooooo                                     ooooooo",
"oooooo                                     ooooooo",
"oooooo                                     ooooooo",
"ooo   OOOOOOXXXX........................       ooo",
"ooo   OOOOOOXXXX........................       ooo",
"ooo   OOOOOOXXXX........................       ooo",
"   OOOXXX..................................       ",
"   OOOXXX..................................       ",
"   OOOXXX..................................       ",
"   XXX.....................................       ",
"   XXX.....................................       ",
"   XXX.....................................       ",
"   XXX.....................................       ",
"   XXX.....................................       ",
"   XXX.....................................       ",
"   XXX.....................................       ",
"   ........................................       ",
"   ........................................       ",
"   ........................................       ",
"   XXX......    ..................   ......       ",
"   XXX......    ..................   ......       ",
"   XXX......    ..................   ......       ",
"   .............   ............   .........       ",
"   .............   ............   .........       ",
"   .............   ............   .........       ",
"   ................   ......   ............       ",
"   ................   ......   ............       ",
"   ................   ......   ............       ",
"   ........................................       ",
"   ........................................       ",
"   ........................................       ",
"   ........................................       ",
"   ........................................       ",
"   ........................................       ",
"   ........................................       ",
"   ........................................       ",
"   ........................................       ",
"   ........................................       ",
"   ........................................       ",
"   ........................................       ",
"      ..................................          ",
"      ..................................          ",
"      ..................................          ",
"ooo                                            ooo",
"ooo                                            ooo",
"ooo                                            ooo",
"ooo                                            ooo",
"oooooo                                     ooooooo",
"oooooo                                     ooooooo",
"oooooo                                     ooooooo"
};
