/* XPM */
static char *_374efba65c94ddbc74ebc176dcb0819ITtfIWgUd8Ul6lCP[] = {
/* columns rows colors chars-per-pixel */
"28 47 6 1 ",
"  c black",
". c #F87800",
"X c #F8B800",
"o c #F8F800",
"O c #0060B8",
"+ c #F8F8F8",
/* pixels */
"OOOOOOOOOOOOOOOOOOOOOOOOOOOO",
"OOOOOOOOOOOOOOOOOOOOOOOOOOOO",
"OOOOOOOOOOOOOOOOOOOOOOOOOOOO",
"OOOOOOOOOOOOOOOOOOOOOOOOOOOO",
"OOOOOOOOOOOOOOOOOOOOOOOOOOOO",
"OOOOOOOOOOO      OOOOOOOOOOO",
"OOOOOOOOOOO      OOOOOOOOOOO",
"OOOOOOOOOOO      OOOOOOOOOOO",
"OOOOOOOOO  +++XXX  OOOOOOOOO",
"OOOOOOOOO  +++XXX  OOOOOOOOO",
"OOOOOO   ++ooooooXX   OOOOOO",
"OOOOOO   ++ooooooXX   OOOOOO",
"OOOOOO   ++ooooooXX   OOOOOO",
"OOOOOO   ++ooooooXX   OOOOOO",
"OOO   +++oo+++   oo...  OOOO",
"OOO   +++oo+++   oo...  OOOO",
"OOO   +++oo+++   oo...  OOOO",
"OOO   +++oo+++   oo...  OOOO",
"OOO   +++oo+++   oo...  OOOO",
"OOO   +++oo+++   oo...  OOOO",
"OOO   +++oo+++   oo...  OOOO",
"OOO   +++oo+++   oo...  OOOO",
"OOO   +++oo+++   oo...  OOOO",
"OOO   +++oo+++   oo...  OOOO",
"OOO   +++oo+++   oo...  OOOO",
"OOO   +++oo+++   oo...  OOOO",
"OOO   +++oo+++   oo...  OOOO",
"OOO   +++oo+++   oo...  OOOO",
"OOO   +++oo+++   oo...  OOOO",
"OOO   +++oo+++   oo...  OOOO",
"OOO   +++oo+++   XX...  OOOO",
"OOO   +++oo+++   XX...  OOOO",
"OOOOOO   oooooooo..   OOOOOO",
"OOOOOO   oooooooo..   OOOOOO",
"OOOOOO   oooooooo..   OOOOOO",
"OOOOOO   ..XXXXXX..   OOOOOO",
"OOOOOO   ..XXXXXX..   OOOOOO",
"OOOOOOOOO  ......  OOOOOOOOO",
"OOOOOOOOO  ......  OOOOOOOOO",
"OOOOOOOOOOO      OOOOOOOOOOO",
"OOOOOOOOOOO      OOOOOOOOOOO",
"OOOOOOOOOOOOOOOOOOOOOOOOOOOO",
"OOOOOOOOOOOOOOOOOOOOOOOOOOOO",
"OOOOOOOOOOOOOOOOOOOOOOOOOOOO",
"OOOOOOOOOOOOOOOOOOOOOOOOOOOO",
"OOOOOOOOOOOOOOOOOOOOOOOOOOOO",
"OOOOOOOOOOOOOOOOOOOOOOOOOOOO"
};
