/* XPM */
static char *b90a26a3dfbf446cbd5c92efe236d5dcmI0nR9wcH3xkljes[] = {
/* columns rows colors chars-per-pixel */
"47 47 8 1 ",
"  c black",
". c #B82800",
"X c #F88800",
"o c #0060B8",
"O c #4040D8",
"+ c #6868D8",
"@ c #8888F8",
"# c #F8F8F8",
/* pixels */
"ooooooooooooooooooooooooooooooooooooooooooooooo",
"ooooooooooooooooooooooooooooooooooooooooooooooo",
"ooooooooooooooooooooooooooooooooooooooooooooooo",
"oooooooooooooooooooooo   oooooooooooooooooooooo",
"oooooooooooooooooooooo   oooooooooooooooooooooo",
"ooooooooooooooooooooo ### ooooooooooooooooooooo",
"ooooooooooooooooooooo ### ooooooooooooooooooooo",
"ooooooooooooooooooooo XXX ooooooooooooooooooooo",
"ooooooooooooooooooooo XXX ooooooooooooooooooooo",
"ooooooooooooooooooooo ... ooooooooooooooooooooo",
"ooooooooooooooooooooo ... ooooooooooooooooooooo",
"ooooooooooooo  oooooo ... oooooo  ooooooooooooo",
"ooooooooooooo #  oooo ... oooo  # ooooooooooooo",
"ooo    oooooo ...             ... oooooo    ooo",
"ooo    oooooo ...             ... oooooo    ooo",
"ooo  #X   ooo .   ####   ####   . ooo   X#  ooo",
"ooooo XXX.       ##@@O###O@@##       .XXX ooooo",
"oooooo XXX... O  #@++ ### ++@#  O ...XXX oooooo",
"oooooo XXX... O  #@++ ### ++@#  O ...XXX oooooo",
"ooooooo   ... O  #@@@O   O@@@#  O ...   ooooooo",
"oooooooooo    O++ ### @@@ ### ++O    oooooooooo",
"ooooooo      O+++@   @   @   @+++O      ooooooo",
"ooooooo      O+++@   @   @   @+++O      ooooooo",
"ooooo  ##XX.. +@@@@@@ ### @@@@@@+ ..XX##  ooooo",
"ooooo  ##XX.. +@@@@@@ ### @@@@@@+ ..XX##  ooooo",
"ooooooo      O+++@@@@@   @@@@@+++O      ooooooo",
"ooooooo      O+++@@@@@   @@@@@+++O      ooooooo",
"oooooooooo    O++@ @@@@@@@@@ @++O    oooooooooo",
"ooooooo   ... OOO .  @@@@@  . OOO ...   ooooooo",
"oooooo XXX... OOO #.. @@@ ..# OOO ...XXX oooooo",
"oooooo XXX... OOO #.. @@@ ..# OOO ...XXX oooooo",
"ooooo XXX.     OO    @+++@    OO     .XXX ooooo",
"ooo  #X   ooo .    OOOOOOOOO    . ooo   X#  ooo",
"ooo    oooooo ... o         o ... oooooo    ooo",
"ooo    oooooo ... o         o ... oooooo    ooo",
"ooooooooooooo #  oooo ... oooo  # ooooooooooooo",
"ooooooooooooo  oooooo ... oooooo  ooooooooooooo",
"ooooooooooooooooooooo ... ooooooooooooooooooooo",
"ooooooooooooooooooooo ... ooooooooooooooooooooo",
"ooooooooooooooooooooo XXX ooooooooooooooooooooo",
"ooooooooooooooooooooo XXX ooooooooooooooooooooo",
"ooooooooooooooooooooo ### ooooooooooooooooooooo",
"ooooooooooooooooooooo ### ooooooooooooooooooooo",
"oooooooooooooooooooooo   oooooooooooooooooooooo",
"ooooooooooooooooooooooooooooooooooooooooooooooo",
"ooooooooooooooooooooooooooooooooooooooooooooooo",
"ooooooooooooooooooooooooooooooooooooooooooooooo"
};
