/* XPM */
static char *_7e09008b2f0454398a0423d8add3c1dx7kNBV0LOgJGesaN[] = {
/* columns rows colors chars-per-pixel */
"50 67 29 1 ",
"  c black",
". c #000203",
"X c #000204",
"o c #000306",
"O c #00050A",
"+ c #00060A",
"@ c #00070C",
"# c #00080F",
"$ c #000910",
"% c #000B15",
"& c #010D19",
"* c #010E19",
"= c #010F1B",
"- c #010F1C",
"; c #003800",
": c #003C00",
"> c #011628",
", c #004D00",
"< c #005D00",
"1 c #023159",
"2 c #023664",
"3 c #008000",
"4 c #00C800",
"5 c #00F800",
"6 c #0468BF",
"7 c #DAE7F4",
"8 c #DFEBF6",
"9 c #E1ECF6",
"0 c #E8F0F8",
/* pixels */
"66666666666666662$$>>%%                         66",
"66666666666666661                               66",
"                 OO==OO:::::::::::::::::::::::<<##",
"                       3333333333333333333333344##",
"3333333333333333;  XoX 3333333333333333333333344#@",
"3333333333333333:      3333333333333333333333344@@",
"3333333333333333,  $$Xo3333333333333333333333344@@",
"33333333333333333    334444444444444444444444455@@",
"33333333333333333    334444444444444444444444455@@",
"33333333333333333XXOO334444444444444444444444455##",
"33333333333333333  Oo334444444444444444444444455@@",
"44444444444444444OOOO445555555555555555555555500@@",
"44444444444444444OOO@445555555555555555555555500@O",
"44444444444444444X XX445555555555555555555555500OO",
"44444444444444444XX X445555555555555555555555500OO",
"55555555555555555    550000000000000000000000000OO",
"55555555555555555    550000000000000000000000000OO",
"55555555555555555    550000000000000000000000000O@",
"55555555555555555    550000000000000000000000000@@",
"88000000000000000    550000000000000000000000000@@",
"88000000000000000    550000000000000000000000000@@",
"77000000000000000    445555555555555555555555500@@",
"77000000000000000    445555555555555555555555500@@",
"99000000000000000    445555555555555555555555500@@",
"99000000000000000    445555555555555555555555500@@",
"55555555555555555    445555555555555555555555500O@",
"55555555555555555    445555555555555555555555500@O",
"55555555555555555    445555555555555555555555500O@",
"55555555555555555    445555555555555555555555500@O",
"55555555555555555    445555555555555555555555500O@",
"55555555555555555    445555555555555555555555500@O",
"55555555555555555    445555555555555555555555500O@",
"55555555555555555    445555555555555555555555500OO",
"55555555555555555    445555555555555555555555500OO",
"55555555555555555    445555555555555555555555500@O",
"55555555555555555    445555555555555555555555500O@",
"44444444444444444    445555555555555555555555500O@",
"44444444444444444    445555555555555555555555500@O",
"44444444444444444    445555555555555555555555500XO",
"44444444444444444    445555555555555555555555500OO",
"44444444444444444    334444444444444444444444455OO",
"44444444444444444    334444444444444444444444455O#",
"44444444444444444    334444444444444444444444455++",
"44444444444444444    334444444444444444444444455++",
"33333333333333333    334444444444444444444444455o#",
"33333333333333333    334444444444444444444444455+o",
"44444444444444444    334444444444444444444444455o+",
"44444444444444444    334444444444444444444444455#o",
"33333333333333333      3333333333333333333333344o+",
"33333333333333333      3333333333333333333333344+o",
"33333333333333333    334444444444444444444444455o#",
"33333333333333333    334444444444444444444444455+o",
"33333333333333333      3333333333333333333333344o#",
"33333333333333333      3333333333333333333333344OO",
"33333333333333333      3333333333333333333333344++",
"33333333333333333      3333333333333333333333344++",
"33333333333333333      3333333333333333333333344+O",
"33333333333333333      3333333333333333333333344O#",
"33333333333333333      3333333333333333333333344#O",
"                       3333333333333333333333344OO",
"                       3333333333333333333333344OO",
"                       3333333333333333333333344OO",
"                       3333333333333333333333344OO",
"                                              33oo",
"                                              33OO",
"66666666666666666----===========&=====**=====%$$66",
"66666666666666666----==-====*****%**********==$@66"
};
