/* XPM */
static char *_911204564274537b384dbba3adb0329WGSy0ZrC7pwUMox2[] = {
/* columns rows colors chars-per-pixel */
"47 47 14 1 ",
"  c black",
". c #500000",
"X c #885818",
"o c #B02860",
"O c #F84070",
"+ c #F87068",
"@ c #D8A038",
"# c #F8D870",
"$ c #203088",
"% c #0060B8",
"& c #408098",
"* c #80D8C8",
"= c #F8D0C0",
"- c #F8F8F8",
/* pixels */
"%%%%%%%%%%%%%%%%%%%%%%%%%%%%%%%%%%%%%%%%%%%%%%%",
"%%%%%%%%%%%%%%%%%%%%%%%%%%%%%.%%%%%%%%%%%%%%%%%",
"%%%%%%%%%%%%%%%%%%%%%%%%.%%%%....%%%%%%%%%%%%%%",
"%%%%%%%%%%%%%%%%%%%%%%%%.............%%%%%%%%%%",
"%%%%%%%%%%%%%%%%%%%%%.......OOOO........%%%%%%%",
"%%%%%%%%%%%%%%%%%%%%%..OOOO.OOOOOOO.....%%%%%%%",
"%%%%%%%%%%%%%%%%%%..o..OOOOOooOOOOO##OO.%%%%%%%",
"%%%%%%%%%%%%%%%..%..ooOOOOOooooo@O###OO...%%%%%",
"%%%%%%%%%%%%%%%..oooooOOOooooooo@@###OO..%%%%%%",
"%%%%%%%%%%%%%%%..oooooooooooo   @@##---..%%%%%%",
"%%%%%%%%%%%%%%...==ooooo    o      #--...%%%%%%",
"%%%%%%%%%%%%....===    o               ..%%%%%%",
"%%%%%%%%%%%...==XX=                       %%%%%",
"%%%%%%%%%%%...==XX===     ++              %%%%%",
"%%%%%%%%%%%..+++XX==   +++++  ++          %%%%%",
"%%%%%%%%%%%..++XXX==   ++==   ++   ++       %%%",
"%%%%%%%%%%...  XX===   ++==   ==  +++%%%    %%%",
"%%%%%%%%%%..   ++===    ===  ===  =+%%%%%%%%%%%",
"%%%%%%%%%%%%  +++==     =======   ==XXX%%%%%%%%",
"%%%%%%%%%%%%     ==  ===============XXXXX%%%%%%",
"%%%%%%%%%%%%    ++++ =====  +========XXX%%%%%%%",
"%%%%%%%%%%%%%   +++++== ==  ++++========X%%%%%%",
"%%%%%%%%%%%%%   XX+++==     ++++++++====XX%%%%%",
"%%%%%%%%%%%%%  XXX++++=       +++++++++=XX%%%%%",
"%%%%%%%%%%%%%%%$$X+++++++         +++++XXX%%%%%",
"%%%%%%%%%%%%%%%$$XXX+++++++          ++XX%%%%%%",
"%%%%%   %%%%%%%$$XXXXXXX+++            %%%%%%%%",
"%%%%%      %%%$$$&&*XXXXXXX           %%%%%%%%%",
"%%%%       $$$&$&&&**XXXXXXX$$$     %%%%%%%%%%%",
"%%%%   ##  $$$&&&&&**XXOOOOX$$$XXX %%%%%%%%%%%%",
"%%%%% ###  $$&&&&&***XXOOOOOOOXXXXXXXX%%%%%%%%%",
"%%%%%%     $$&&&&&**XXXOOOOOOO..--XXX%%%%%%%%%%",
"%%%%%%  XX$$$&&&&&&&XXXOOOOOOO..-----%%%%%%%%%%",
"%%%  XX XX$$&&&&&&&&**XXOOOOO...-----XXXX%%%%%%",
"%%%  XXXXX$$&&&&&&&&**XXXXXOO...----XXXXX%%%%%%",
"%%   XXXXXXX$$&&&&&&&&XXXXXXX..--------XX%%%%%%",
"%%   ## XXXX$$&&&&&&&***--XXX..-------XXX%%%%%%",
"%%  ###    $$$&&&&&&&***----&..-------XX%%%%%%%",
"%%    %    $$$$&&&&&&&&&----&&XXX-----XX%%%%%%%",
"%%%   %%%% $$$$$$$$&&&&&&$$-&&XXXXXX-XXX%%%%%%%",
"%%%%%%%%%%%%%%$$$$$$$$&&&$$%%%%XXXXXX%%X%%%%%%%",
"%%%%%%%%%%%%%%%%%$$$$$$$$%$%%%%%%%XXX%%%%%%%%%%",
"%%%%%%%%%%%%%%%%%%%%%$$$%%%%%%%%%%%%%%%%%%%%%%%",
"%%%%%%%%%%%%%%%%%%%%%%%%%%%%%%%%%%%%%%%%%%%%%%%",
"%%%%%%%%%%%%%%%%%%%%%%%%%%%%%%%%%%%%%%%%%%%%%%%",
"%%%%%%%%%%%%%%%%%%%%%%%%%%%%%%%%%%%%%%%%%%%%%%%",
"%%%%%%%%%%%%%%%%%%%%%%%%%%%%%%%%%%%%%%%%%%%%%%%"
};
