/* XPM */
static char *_8c70a7e8d604f5b80b793f17a50ba2a0SWbJWF3qgIxGGGz[] = {
/* columns rows colors chars-per-pixel */
"47 47 14 1 ",
"  c black",
". c #500000",
"X c #885818",
"o c #B02860",
"O c #F84070",
"+ c #F87068",
"@ c #D8A038",
"# c #F8D870",
"$ c #203088",
"% c #0060B8",
"& c #408098",
"* c #80D8C8",
"= c #F8D0C0",
"- c #F8F8F8",
/* pixels */
"%%%%%%%%%%%%%%%%%%%%%%%%%%%%%%%%%%%%%%%%%%%%%%%",
"%%%%%%%%%%%%%%%%%%%%%%%...%%%%%%%%%%%%%%%%%%%%%",
"%%%%%%%%%%%%%%%%%%%%.......%.%%%%%%%%%%%%%%%%%%",
"%%%%%%%%%%%%%%%%.........OO..%%%%%%%%%%%%%%%%%%",
"%%%%%%%%%%%%%%%%.....O###OO...%%%%%%%%%%%%%%%%%",
"%%%%%%%%%%%%%%%%..OOOOO##O--..%%%%%%%%%%%%%%%%%",
"%%%%%%%%%%%%%%..OOOOOOO##---..%  %%%%%%%%%%%%%%",
"%%%%%%%%%%%%....OOOoo@@###--     %%%%%%%%%%%%%%",
"%%%%%%%%%%%%....Ooooo@@@            %%%%%%%%%%%",
"%%%%%%%%%%%%OOOOOoooo               %%%%%%%%%%%",
"%%%%%%%%%%..OOOOOooo             %%%%%%%%%%%%%%",
"%%%%%%%%%%...OOooooo          %%%%%%%%%%%%%%%%%",
"%%%%%%%%%%.ooOOooo         +++%%%%%%%%%%%%%%%%%",
"%%%%%%%%%..ooOoo       ++  +++%XXXX%%%%%%%%%%%%",
"%%%%%%%%%..ooooo   ++  ++   ==XXXXX%X%%%%%%%%%%",
"%%%%%%%..ooooooo   ++  +==  ==XX===XXX%%%%%%%%%",
"%%%%%%%..ooo       +=   ==  ========XX%%%%%%%%%",
"%%%%%%%...==     ++===  ==========++XX%%%%%%%%%",
"%%%%%%%%..== ==  +++==========++++++XX%%%%%%%%%",
"%%%%%%%%..XXX==  +  =======++++++++ %%%%%%%%%%%",
"%%%%%%%.===XX==     ===  +++++++     %%%%%%%%%%",
"%%%%%%..===XX===    ===  +++        %%%%%%%%%%%",
"%%%%%%%..++XX===  =====            %%%%%%%%%%%%",
"%%%%%%%..++XX+==   ==              %%%%%%%%%%%%",
"%%%%%%%..   ++==  +==             XXXX%%%%%%%%%",
"%%%%%%%...  +++++++=== +++     XXXXXXXXXXXX%%%%",
"%%%%%%%%..     +++++++++++ XX$$XXXX---XXXXX%%%%",
"%%%%%%%%%%     +X+++++++XXXXX$$...-----X-XX%%%%",
"%%%%%%%%%%  %  XXX++XXXXXXXXOOOO..-------XXX%%%",
"%%%%%%%%%%%%%  XX$XXXXXXXOOOOOOO..--------XX%%%",
"%%%%%%%%%%%%%%%%$$XXX**XXOOOOOOO...-------XX%%%",
"%%%%%%%%%%%%%%%%$$&&&**XXXOOOOOOO..-------X%%%%",
"%%%%%%%%%%%%%%%%$$$&&***XXOOOOOXX..----XXX%%%%%",
"%%%%%%%%%%%%%%%%%$$&&***XXOXXXXXX...XXXXXXX%%%%",
"%%%%%%%%%%%%%%%  &&&&&*****XXXXX-&&&XXXXX%%%%%%",
"%%%%%%%%%%%%     &&&&&&&***XX-----&&X%%%%%%%%%%",
"%%%%%%%%%%%%%    &&&&&&&&&&**-----%%%%%%%%%%%%%",
"%%%%%%%%%%%%%XXXXX&&&&&&&&&***&&$$%%%%%%%%%%%%%",
"%%%%%%%%%%%  XXXXX$$&&&&&&&&&&&&$$$%%%%%%%%%%%%",
"%%%%%%%%%%%   XXXX$$$&&&&&&&&&&$$%%%%%%%%%%%%%%",
"%%%%%%%%%%% ##XXXXX$$$$&&&&&$$$$$%%%%%%%%%%%%%%",
"%%%%%%%%%%  ##XX   $$$$$$$$$$$$$$%%%%%%%%%%%%%%",
"%%%%%%%%%%  #      $$%$$$$$$$%%%%%%%%%%%%%%%%%%",
"%%%%%%%%%%        %%%%$$$$%%%%%%%%%%%%%%%%%%%%%",
"%%%%%%%%%%    %%%%%%%%%%%%%%%%%%%%%%%%%%%%%%%%%",
"%%%%%%%%%%%%%%%%%%%%%%%%%%%%%%%%%%%%%%%%%%%%%%%",
"%%%%%%%%%%%%%%%%%%%%%%%%%%%%%%%%%%%%%%%%%%%%%%%"
};
