/* XPM */
static char *_da08e87842f475aa222ae4ccc098cc4eLHBI43171N0U0BG[] = {
/* columns rows colors chars-per-pixel */
"47 47 14 1 ",
"  c black",
". c #500000",
"X c #885818",
"o c #B02860",
"O c #F84070",
"+ c #F87068",
"@ c #D8A038",
"# c #F8D870",
"$ c #203088",
"% c #0060B8",
"& c #408098",
"* c #80D8C8",
"= c #F8D0C0",
"- c #F8F8F8",
/* pixels */
"%%%%%%%%%%%%%%%%%%%%%%%%%%%%%%%%%%%%%%%%%%%%%%%",
"%%%%%%%%%%%%%%............%%%%%%%%%%%%%%%%%%%%%",
"%%%%%%%%%%%%%%............%%%%%%%%%%%%%%%%%%%%%",
"%%%%%%%%%%%%..OOO##OOOOOOO.....%%%%%%%%%%%%%%%%",
"%%%%%%%%%%%%..OOO##OOOOOOO.....%%%%%%%%%%%%%%%%",
"%%%%%%%%%%%%..OOO##OOOOOOO.....%%%%%%%%%%%%%%%%",
"%%%%%%%%%%%%..---##@@oooooOOOOO..%%%%%%%%%%%%%%",
"%%%%%%%%%%%%..---##@@oooooOOOOO..%%%%%%%%%%%%%%",
"%%%%%%%%%%              ooooOOOoo..%%%%%%%%%%%%",
"%%%%%%%%%%              ooooOOOoo..%%%%%%%%%%%%",
"%%%%%%%%                    ooooooo...%%%%%%%%%",
"%%%%%%%%                    ooooooo...%%%%%%%%%",
"%%%%%%%%%%%%%%+++  ++   ++       ==...%%%%%%%%%",
"%%%%%%%%%%%%%%+++  ++   ++       ==...%%%%%%%%%",
"%%%%%%%%%%%%%%+++  ++   ++       ==...%%%%%%%%%",
"%%%%%%%%%%XXXX===  ==   ==++   ==XX===..%%%%%%%",
"%%%%%%%%%%XXXX===  ==   ==++   ==XX===..%%%%%%%",
"%%%%%%%%XX================     ==XX+++..%%%%%%%",
"%%%%%%%%XX================     ==XX+++..%%%%%%%",
"%%%%%%%%XX================     ==XX+++..%%%%%%%",
"%%%%%%%%XX+++++++++++   ====   ==++   ..%%%%%%%",
"%%%%%%%%XX+++++++++++   ====   ==++   ..%%%%%%%",
"%%%%%%%%%%                ==+++++     %%%%%%%%%",
"%%%%%%%%%%                ==+++++     %%%%%%%%%",
"%%%%%%%%%%%%         ++++++++++XX  %%%%%%%%%%%%",
"%%%%%%%%%%%%         ++++++++++XX  %%%%%%%%%%%%",
"%%%%%%%%%%%%         ++++++++++XX  %%%%%%%%%%%%",
"%%%%%%%%%%XXXXXXX$$XXXXXXXXXXXX$$%%%%%%%%%%%%%%",
"%%%%%%%%%%XXXXXXX$$XXXXXXXXXXXX$$%%%%%%%%%%%%%%",
"%%%%%XXXXX----...OOOOOOOXX**&&&$$%%%%%%%%%%%%%%",
"%%%%%XXXXX----...OOOOOOOXX**&&&$$%%%%%%%%%%%%%%",
"%%%%%XXX------...OOOOOOOXX**&&&&&     %%%%%%%%%",
"%%%%%XXX------...OOOOOOOXX**&&&&&     %%%%%%%%%",
"%%%%%XXX------...XXXXXXX**&&&&&&&XXXXX  %%%%%%%",
"%%%%%XXX------...XXXXXXX**&&&&&&&XXXXX  %%%%%%%",
"%%%%%XXX------...XXXXXXX**&&&&&&&XXXXX  %%%%%%%",
"%%%%%%%%XXXXXX&&&----***&&&&&&&$$XXXXX##  %%%%%",
"%%%%%%%%XXXXXX&&&----***&&&&&&&$$XXXXX##  %%%%%",
"%%%%%%%%%%%%%%%%%$$&&&&&&&&&$$$$$         %%%%%",
"%%%%%%%%%%%%%%%%%$$&&&&&&&&&$$$$$         %%%%%",
"%%%%%%%%%%%%%%%%%%%$$$$$$$$$$$$%%%%%%%%%%%%%%%%",
"%%%%%%%%%%%%%%%%%%%$$$$$$$$$$$$%%%%%%%%%%%%%%%%",
"%%%%%%%%%%%%%%%%%%%$$$$$$$$$$$$%%%%%%%%%%%%%%%%",
"%%%%%%%%%%%%%%%%%%%%%%%%%%%%%%%%%%%%%%%%%%%%%%%",
"%%%%%%%%%%%%%%%%%%%%%%%%%%%%%%%%%%%%%%%%%%%%%%%",
"%%%%%%%%%%%%%%%%%%%%%%%%%%%%%%%%%%%%%%%%%%%%%%%",
"%%%%%%%%%%%%%%%%%%%%%%%%%%%%%%%%%%%%%%%%%%%%%%%"
};
