/* XPM */
static char *_99447ac484046bed92d54ce88ddbc71NKS15XnUfoVfVviN[] = {
/* columns rows colors chars-per-pixel */
"47 47 14 1 ",
"  c black",
". c #500000",
"X c #885818",
"o c #B02860",
"O c #F84070",
"+ c #F87068",
"@ c #D8A038",
"# c #F8D870",
"$ c #203088",
"% c #0060B8",
"& c #408098",
"* c #80D8C8",
"= c #F8D0C0",
"- c #F8F8F8",
/* pixels */
"%%%%%%%%%%%%%%%%%%%%%%%%%%%%%%%%%%%%%%%%%%%%%%%",
"%%%%%%%%%%%%%%%%%%%%%%%%%%%%%.%%%%%%%%%%%%%%%%%",
"%%%%%%%%%%%%%%%%%%%%%%%%.%%%......%%%%%%%%%%%%%",
"%%%%%%%%%%%%%%%%%%%%%%%.....O........%%%%%%%%%%",
"%%%%%%%%%%%%%%%%%%%%%.......OOOO........%%%%%%%",
"%%%%%%%%%%%%%%%%%%%%...OOOO.OOOOOOO.....%%%%%%%",
"%%%%%%%%%%%%%%%%%%..ooOOOOOoooOOOOO##OO%%%%%%%%",
"%%%%%%%%%%%%%%%..o..ooOOOOOooooo@@###OO..%%%%%%",
"%%%%%%%%%%%%%%%..oooooOOoooooooo@@##-OO..%%%%%%",
"%%%%%%%%%%%%%%...ooooooo oooo   @@##--...%%%%%%",
"%%%%%%%%%%%%%%...== oooo    o       --...%%%%%%",
"%%%%%%%%%%%...=.==                     .%%%%%%%",
"%%%%%%%%%%%...==XX        +               %%%%%",
"%%%%%%%%%%%..===XX==     +++              %%%%%",
"%%%%%%%%%%%..++XXX==   ++++   ++          %%%%%",
"%%%%%%%%%%...++XX===  +++==   ++  +++       %%%",
"%%%%%%%%%%..   XX===    ===  ===  ++%%%%%   %%%",
"%%%%%%%%%%..   ++==     ===  ==   ==%%%%%%%%%%%",
"%%%%%%%%%%%%  ++===  =  =======  ===XXX%%%%%%%%",
"%%%%%%%%%%%%    +==  ===============XXXX%%%%%%%",
"%%%%%%%%%%%%    ++++ =====  +=========XX%%%%%%%",
"%%%%%%%%%%%%%   +++++== =   ++++========X%%%%%%",
"%%%%%%%%  %%%  XXX++===     ++++++++====XX%%%%%",
"%%%%%%%%       XXX++++         ++++++++XXX%%%%%",
"%%%%%   ##     $$+++++++++        +++++XX%%%%%%",
"%%%%%  ###XX$ $$$XXXX++++++           +XX%%%%%%",
"%%%%%%% ##XX$$&&&XXXXXXX++            %%%%%%%%%",
"%%%%%%%  XXX$$&&&&&*XXXXXXXX          %%%%%%%%%",
"%%%%%%%  XX$$$&&&&&**XXOXXXX$$X    %%%%%%%%%%%%",
"%%%%%%%%% X$$&&&&&***XXOOOOX$$XXXXX%%%%%%%%%%%%",
"%%%%%%%%   $$$&&&&**XXXOOOOOOO.XXXXXX%%%%%%%%%%",
"%%%%%%%%   $$$$&&&**XXXOOOOOOO..--XXX%%%%%%%%%%",
"%%%%%%%%    $$$&&&&&*XOOOOOOO...-----X%%%%%%%%%",
"%%%%%  %    &&&&&&&&**XXOOOOO..-----XXXXX%%%%%%",
"%%%%%  XXX  &&&&&&&***XXXXXXO..-----XXXXX%%%%%%",
"%%%%%  XXXXX$$&&&&&&&*XXXXXX...-------XXX%%%%%%",
"%%%%   XXXX$$$&&&&&&&***--XX...-------XX%%%%%%%",
"%%%%  XXXXXX$&&&&&&&&**-----&.--------XX%%%%%%%",
"%%%%  #XXXXXX$$$&&&&&&&&----&&XXX----XXX%%%%%%%",
"%%%   ##   XX$$&&&&&&&&&&$$%&&XXXXXX-XXX%%%%%%%",
"%%%%%% #     $$&&&&&$$$&&$$%%%%XXXXXX%%%%%%%%%%",
"%%%%%   %%  $$$$$$&&$$$$$%$%%%%%%%%XX%%%%%%%%%%",
"%%%%%% %%%%%%%$$$$$%%$$$%%%%%%%%%%%%%%%%%%%%%%%",
"%%%%%%%%%%%%%%%%%$$%%%%%%%%%%%%%%%%%%%%%%%%%%%%",
"%%%%%%%%%%%%%%%%%%%%%%%%%%%%%%%%%%%%%%%%%%%%%%%",
"%%%%%%%%%%%%%%%%%%%%%%%%%%%%%%%%%%%%%%%%%%%%%%%",
"%%%%%%%%%%%%%%%%%%%%%%%%%%%%%%%%%%%%%%%%%%%%%%%"
};
