/* XPM */
static char *d04cac385a5e461f95b1d7592ac1e172zkPbt0NvH7ib6mLX[] = {
/* columns rows colors chars-per-pixel */
"47 47 14 1 ",
"  c black",
". c #500000",
"X c #885818",
"o c #B02860",
"O c #F84070",
"+ c #F87068",
"@ c #D8A038",
"# c #F8D870",
"$ c #203088",
"% c #0060B8",
"& c #408098",
"* c #80D8C8",
"= c #F8D0C0",
"- c #F8F8F8",
/* pixels */
"%%%%%%%%%%%%%%%%%%%%%%%%%%%%%%%%%%%%%%%%%%%%%%%",
"%%%%%%%%%%%%%%%%%%%%%%%%%%%%%.%%%%%%%%%%%%%%%%%",
"%%%%%%%%%%%%%%%%%%%%%%%%.%%%%.....%%%%%%%%%%%%%",
"%%%%%%%%%%%%%%%%%%%%%%%%....O........%%%%%%%%%%",
"%%%%%%%%%%%%%%%%%%%%%..O....OOOO........%%%%%%%",
"%%%%%%%%%%%%%%%%%%.%...OOOO.OOOOOOO#....%%%%%%%",
"%%%%%%%%%%%%%%%%%%..oo.OOOOOoooOOOO##OO.%%%%%%%",
"%%%%%%%%%%%%%%%..o..ooOOOoOooooo@@###OO...%%%%%",
"%%%%%%%%%%%%%%%..oooooOOOooooooo@@##--O..%%%%%%",
"%%%%%%%%%%%%%%...ooooooo oooo    @##---..%%%%%%",
"%%%%%%%%%%%%%%...== oooo    o       --...%%%%%%",
"%%%%%%%%%%%%..=.===    o               ..%%%%%%",
"%%%%%%%%%%%...==XX        +                %%%%",
"%%%%%%%%%%%..===XX===     ++              %%%%%",
"%%%%%%%%%%%..++XXX==   +++++  ++          %%%%%",
"%%%%%%%%%%%..++XXX==   ++==   ++  +++       %%%",
"%%%%%%%%%%..   XX===    +==  ===  +++%%%%   %%%",
"%%%%%%%%%%..   ++==     ===  ==   ==%%%%%%%%%%%",
"%%%%%%%%%%%%  +++==     =======   ==XXX%%%%%%%%",
"%%%%%%%%%%%%    +==  ===============XXXXX%%%%%%",
"%%%%%%%%%%%%    +++++=====  +=========XX%%%%%%%",
"%%%%%%%%%%%%%   +++++== ==  +++++=======X%%%%%%",
"%%%%%%%%%%%%%   XX+++==     ++++++++====XX%%%%%",
"%%%%%%%%%%%%%% XXX+++++        +++++++++XX%%%%%",
"%%%%%%%%%%%%%%%$$+++++++++         ++++XXX%%%%%",
"%%%%%%%%%%%%%%%$$XXXX++++++           +XX%%%%%%",
"%%%%%%%%%%%%%%$$$XXXXXXX++             %%%%%%%%",
"%%%%%%%%%   %%$$$&&*XXXXXXXX          %%%%%%%%%",
"%%%%%%%%%     &$&&&**XXXXXXX$$$     %%%%%%%%%%%",
"%%%%%%%  X    &&&&***XXOOOOX$$XXXXX%%%%%%%%%%%%",
"%%%% %  XXXXX&&&&&***XXOOOOOOO.XXXXXXX%%%%%%%%%",
"%%%%  ##XXXXX&&&&&**XXXOOOOOOO..--XXX%%%%%%%%%%",
"%%%   ##XXXXX&&&&&&&*XXOOOOOOO..-----X%%%%%%%%%",
"%%%    #XXXX$$$&&&&&**XXOOOOO...-----XXXX%%%%%%",
"%%%        X$$$&&&&&**XXXXXXO..-----XXXXX%%%%%%",
"%%%%%%      $$&&&&&&&&*XXXXXX..--------XX%%%%%%",
"%%%%%%%%%   $$$$&&&&&***--XX...-------XX%%%%%%%",
"%%%%%%%%%%%%%$$$&&&&&**-----&&.-------XX%%%%%%%",
"%%%%%%%%%%%%%$$$&&&&&&&&&---&&XXX-----XX%%%%%%%",
"%%%%%%%%%%%%%$$$$$$$&&&&&$$$&&XXXXXXXXXX%%%%%%%",
"%%%%%%%%%%%%%%$$$$$$$$$&&$$%%%%%XXXXX%%%%%%%%%%",
"%%%%%%%%%%%%%%%%%%$$$$$$$%$%%%%%%%%XX%%%%%%%%%%",
"%%%%%%%%%%%%%%%%%%%%%$$$%%%%%%%%%%%%%%%%%%%%%%%",
"%%%%%%%%%%%%%%%%%%%%%%%%%%%%%%%%%%%%%%%%%%%%%%%",
"%%%%%%%%%%%%%%%%%%%%%%%%%%%%%%%%%%%%%%%%%%%%%%%",
"%%%%%%%%%%%%%%%%%%%%%%%%%%%%%%%%%%%%%%%%%%%%%%%",
"%%%%%%%%%%%%%%%%%%%%%%%%%%%%%%%%%%%%%%%%%%%%%%%"
};
