/* XPM */
static char *_d122b719db64421e83bf9a5d22015aa3dBAUiGQs18Euu83[] = {
/* columns rows colors chars-per-pixel */
"47 47 14 1 ",
"  c black",
". c #500000",
"X c #885818",
"o c #B02860",
"O c #F84070",
"+ c #F87068",
"@ c #D8A038",
"# c #F8D870",
"$ c #203088",
"% c #0060B8",
"& c #408098",
"* c #80D8C8",
"= c #F8D0C0",
"- c #F8F8F8",
/* pixels */
"%%%%%%%%%%%%%%%%%%%%%%%%%%%%%%%%%%%%%%%%%%%%%%%",
"%%%%%%%%%%%%%%%...........%%%%%%%%%%%%%%%%%%%%%",
"%%%%%%%%%%%%%%%...........%%%%%%%%%%%%%%%%%%%%%",
"%%%%%%%%%%%%...OO##OOOOOOO.....%%%%%%%%%%%%%%%%",
"%%%%%%%%%%%%...OO##OOOOOOO.....%%%%%%%%%%%%%%%%",
"%%%%%%%%%%%%...OO##OOOOOOO.....%%%%%%%%%%%%%%%%",
"%%%%%%%%%%%%...--##@@@ooooOOOOO..%%%%%%%%%%%%%%",
"%%%%%%%%%%%%...--##@@@ooooOOOOO..%%%%%%%%%%%%%%",
"%%%%%%%%%%              ooooOOOoo..%%%%%%%%%%%%",
"%%%%%%%%%%              ooooOOOoo..%%%%%%%%%%%%",
"%%%%%%%%                    ooooooo...%%%%%%%%%",
"%%%%%%%%                    ooooooo...%%%%%%%%%",
"%%%%%%%%%%%%%%%++  +++  ++       ==...%%%%%%%%%",
"%%%%%%%%%%%%%%%++  +++  ++       ==...%%%%%%%%%",
"%%%%%%%%%%%%%%%++  +++  ++       ==...%%%%%%%%%",
"%%%%%%%%%%XXXXX==  ===  ==++   ==XX===..%%%%%%%",
"%%%%%%%%%%XXXXX==  ===  ==++   ==XX===..%%%%%%%",
"%%%%%%%%XX================     ==XX+++..%%%%%%%",
"%%%%%%%%XX================     ==XX+++..%%%%%%%",
"%%%%%%%%XX================     ==XX+++..%%%%%%%",
"%%%%%%%%XX++++++++++++  ====   ==++   ..%%%%%%%",
"%%%%%%%%XX++++++++++++  ====   ==++   ..%%%%%%%",
"%%%%%%%%%%                ==+++++     %%%%%%%%%",
"%%%%%%%%%%                ==+++++     %%%%%%%%%",
"%%%%%%%%%%%%          +++++++++XX  %%%%%%%%%%%%",
"%%%%%%%%%%%%          +++++++++XX  %%%%%%%%%%%%",
"%%%%%%%%%%%%          +++++++++XX  %%%%%%%%%%%%",
"%%%%%%%%%%XXXXXXX$$XXXXXXXXXXXX$$       %%%%%%%",
"%%%%%%%%%%XXXXXXX$$XXXXXXXXXXXX$$       %%%%%%%",
"%%%%%XXXXX-----..OOOOOOOXX**&&&&&$$XXX##  %%%%%",
"%%%%%XXXXX-----..OOOOOOOXX**&&&&&$$XXX##  %%%%%",
"%%%%%XXX-------..OOOOOOOXX**&&&&&$$XXX  %%%%%%%",
"%%%%%XXX-------..OOOOOOOXX**&&&&&$$XXX  %%%%%%%",
"%%%%%XXX-------..XXXXXXX**&&&&&$$$$   %%%%%%%%%",
"%%%%%XXX-------..XXXXXXX**&&&&&$$$$   %%%%%%%%%",
"%%%%%XXX-------..XXXXXXX**&&&&&$$$$   %%%%%%%%%",
"%%%%%%%%XXXXXXX&&-----**&&&&&&&&&     %%%%%%%%%",
"%%%%%%%%XXXXXXX&&-----**&&&&&&&&&     %%%%%%%%%",
"%%%%%%%%%%%%%%%%%$$&&&&&&&&&&&&$$XXXXX  %%%%%%%",
"%%%%%%%%%%%%%%%%%$$&&&&&&&&&&&&$$XXXXX  %%%%%%%",
"%%%%%%%%%%%%%%%%%%%$$$$$&&&&$$$XXXXXXX  %%%%%%%",
"%%%%%%%%%%%%%%%%%%%$$$$$&&&&$$$XXXXXXX  %%%%%%%",
"%%%%%%%%%%%%%%%%%%%$$$$$&&&&$$$XXXXXXX  %%%%%%%",
"%%%%%%%%%%%%%%%%%%%%%%%%$$$$$$$    ###  %%%%%%%",
"%%%%%%%%%%%%%%%%%%%%%%%%$$$$$$$    ###  %%%%%%%",
"%%%%%%%%%%%%%%%%%%%%%%%%%%%%%%%%%%%   %%%%%%%%%",
"%%%%%%%%%%%%%%%%%%%%%%%%%%%%%%%%%%%   %%%%%%%%%"
};
