/* XPM */
static char *_eed238e82074f37a309e2cf006b4232gCc4lflIuF2m7SiV[] = {
/* columns rows colors chars-per-pixel */
"47 47 14 1 ",
"  c black",
". c #500000",
"X c #885818",
"o c #B02860",
"O c #F84070",
"+ c #F87068",
"@ c #D8A038",
"# c #F8D870",
"$ c #203088",
"% c #0060B8",
"& c #408098",
"* c #80D8C8",
"= c #F8D0C0",
"- c #F8F8F8",
/* pixels */
"%%%%%%%%%%%%%%%%%%%%%%%%%%%%%%%%%%%%%%%%%%%%%%%",
"%%%%%%%%%%%%%%%%%%%%%............%%%%%%%%%%%%%%",
"%%%%%%%%%%%%%%%%%%%%%............%%%%%%%%%%%%%%",
"%%%%%%%%%%%%%%%%.....OOOOOOO##OOO..%%%%%%%%%%%%",
"%%%%%%%%%%%%%%%%.....OOOOOOO##OOO..%%%%%%%%%%%%",
"%%%%%%%%%%%%%%%%.....OOOOOOO##OOO..%%%%%%%%%%%%",
"%%%%%%%%%%%%%%..OOOOOooooo@@##---..%%%%%%%%%%%%",
"%%%%%%%%%%%%%%..OOOOOooooo@@##---..%%%%%%%%%%%%",
"%%%%%%%%%%%%..ooOOOoooo              %%%%%%%%%%",
"%%%%%%%%%%%%..ooOOOoooo              %%%%%%%%%%",
"%%%%%%%%%%..ooooooo                     %%%%%%%",
"%%%%%%%%%%..ooooooo                     %%%%%%%",
"%%%%%%%%%%..==       ++   ++  +++%%%%%%%%%%%%%%",
"%%%%%%%%%%..==       ++   ++  +++%%%%%%%%%%%%%%",
"%%%%%%%%%%..==       ++   ++  +++%%%%%%%%%%%%%%",
"%%%%%%%...==XX==   ++==   ==  ===XXXX%%%%%%%%%%",
"%%%%%%%...==XX==   ++==   ==  ===XXXX%%%%%%%%%%",
"%%%%%%%...++XX==     ================XXX%%%%%%%",
"%%%%%%%...++XX==     ================XXX%%%%%%%",
"%%%%%%%...++XX==     ================XXX%%%%%%%",
"%%%%%%%...  ++==   ====   +++++++++++XXX%%%%%%%",
"%%%%%%%...  ++==   ====   +++++++++++XXX%%%%%%%",
"%%%%%%%%%%    +++++==                %%%%%%%%%%",
"%%%%%%%%%%    +++++==                %%%%%%%%%%",
"%%%%%%%%%%%%  XX++++++++++         %%%%%%%%%%%%",
"%%%%%%%%%%%%  XX++++++++++         %%%%%%%%%%%%",
"%%%%%%%%%%%%  XX++++++++++         %%%%%%%%%%%%",
"%%%%%%%       $$XXXXXXXXXXXX$$XXXXXXX%%%%%%%%%%",
"%%%%%%%       $$XXXXXXXXXXXX$$XXXXXXX%%%%%%%%%%",
"%%%%%  ###XX$$&&&&&**XXOOOOOOO...----XXXXX%%%%%",
"%%%%%  ###XX$$&&&&&**XXOOOOOOO...----XXXXX%%%%%",
"%%%%%%%   XX$$&&&&&**XXOOOOOOO...-------XX%%%%%",
"%%%%%%%   XX$$&&&&&**XXOOOOOOO...-------XX%%%%%",
"%%%%%%%%%%  $$$$&&&&&**XXXXXXX...-------XX%%%%%",
"%%%%%%%%%%  $$$$&&&&&**XXXXXXX...-------XX%%%%%",
"%%%%%%%%%%  $$$$&&&&&**XXXXXXX...-------XX%%%%%",
"%%%%%%%%%%    &&&&&&&&&***----&&&XXXXXXX%%%%%%%",
"%%%%%%%%%%    &&&&&&&&&***----&&&XXXXXXX%%%%%%%",
"%%%%%%%   XXXX$$&&&&&&&&&&&&$$%%%%%%%%%%%%%%%%%",
"%%%%%%%   XXXX$$&&&&&&&&&&&&$$%%%%%%%%%%%%%%%%%",
"%%%%%%%   XXXXXX$$$&&&&$$$$$%%%%%%%%%%%%%%%%%%%",
"%%%%%%%   XXXXXX$$$&&&&$$$$$%%%%%%%%%%%%%%%%%%%",
"%%%%%%%   XXXXXX$$$&&&&$$$$$%%%%%%%%%%%%%%%%%%%",
"%%%%%%%   ##    $$$$$$$%%%%%%%%%%%%%%%%%%%%%%%%",
"%%%%%%%   ##    $$$$$$$%%%%%%%%%%%%%%%%%%%%%%%%",
"%%%%%%%%%%  %%%%%%%%%%%%%%%%%%%%%%%%%%%%%%%%%%%",
"%%%%%%%%%%  %%%%%%%%%%%%%%%%%%%%%%%%%%%%%%%%%%%"
};
