/* XPM */
static char *d3387f8a283d47e5911d7218cadbacfdxacztN5iGLnAr9gE[] = {
/* columns rows colors chars-per-pixel */
"47 47 15 1 ",
"  c black",
". c #500000",
"X c #885818",
"o c #B02860",
"O c #F84070",
"+ c #F87068",
"@ c #D8A038",
"# c #F8D870",
"$ c #203088",
"% c #005EAB",
"& c #0060B8",
"* c #408098",
"= c #80D8C8",
"- c #F8D0C0",
"; c #F8F8F8",
/* pixels */
"&&&&&&&&&&&&&&&&&&&&&&....&&&&&&&&&&&&&&&&&&&&&",
"&&&&&&&&&&&&&&&&&&&..........&&&&&&&&&&&&&&&&&&",
"&&&&&&&&&&&&&&&.........#OO..&&&&&&&&&&&&&&&&&&",
"&&&&&&&&&&&&&&&&....OOO##OO...&&&&&&&&&&&&&&&&&",
"&&&&&&&&&&&&&&&&.OOOOOO##;;;..&&&&&&&&&&&&&&&&&",
"&&&&&&&&&&&&&...OOOOO@@##;;;..   &&&&&&&&&&&&&&",
"&&&&&&&&&&&&....OOooo@@@##       & &&&&&&&&&&&&",
"&&&&&&&&&&&&..OOOooooo@             &&&&&&&&&&&",
"&&&&&&&&&&&.OOOOOoo                &&&&&&&&&&&&",
"&&&&&&&&&&...OOOoooo            &&&&&&&&&&&&&&&",
"&&&&&&&&&&..oOOooooo        +&&&&&&&&&&&&&&&&&&",
"&&&&&&&&&..ooOOO           +++&&&X&&&&&&&&&&&&&",
"&&&&&&&&&..ooooo       ++  ++-XXXXX&&&&&&&&&&&&",
"&&&&&&&&&ooooooo  +++  +++  --XXXX-XX&&&&&&&&&&",
"&&&&&&&..ooooo     ++   --  --X----XXX&&&&&&&&&",
"&&&&&&&...o-       --   -- ---------XX&&&&&&&&&",
"&&&&&&&&..--     ++---  --------++++XX&&&&&&&&&",
"&&&&&&&&..-----  +++---------+++++++X&&&&&&&&&&",
"&&&&&&&&.--XX--     -----++++++++   &&&&&&&&&&&",
"&&&&&&...--XX--     ---  +++++       &&&&&&&&&&",
"&&&&&&...-+XX---  -----  +         &&&&&&&&&&&&",
"&&&&&&&..++XXX--  -----            &&&&&&&&&&&&",
"&&&&&&&..++ ++--   --              &XX&&&&&&&&&",
"&&&&&&&...  ++--+++--   ++       XXXXX&&XXX&&&&",
"&&&&&&&&..  + +++++--+++++   $$XXXXXX;XXXXX&&&&",
"&&&&&&&&.&     +++++++++++XXX$$XX.;;;;XXXXX&&&&",
"&&&&&&&&&&&    XX+++++XXXXXXX$OO..;;;;;;;XX&&&&",
"&&&&&&&&&&&&&  XXX+XXXXXXXOOOOOO..;;;;;;;XXX&&&",
"&&&&&&&&&&&&&   $$XXXXXXXOOOOOOO..;;;;;;;;XX&&&",
"&&&&&&&&&&&&    $$X**==XXOOOOOOO...;;;;;;;XX&&&",
"&&&&&&&&&       *****==XXXOOOOOOX..;;;;;;X&&&&&",
"&&&&&&&&&&  XX$$*****===XXOOOXXXX..;;XXXXX&&&&&",
"&&&&&&&&& ##XXX$$*****==X=XXXXXXX.**XXXXXX&&&&&",
"&&&&&&&&  ###XX$$*******===XXX;;;;**XXX&&&&&&&&",
"&&&&&&&&     XX$$*$$*****====;;;;;*&&&&&&&&&&&&",
"&&&&&&&&&&&  XX$$$$$*******===;;$$&&&&&&&&&&&&&",
"&&&&&&&&&&&&&   $$$$*******=****$$&&&&&&&&&&&&&",
"&&&&&&&&&&&&&&    ***************&&&&&&&&&&&&&&",
"&&&&&&&&&&&&&&    ***********$$$$&&&&&&&&&&&&&&",
"&&&&&&&&&&&&&&    X$$*******$$$$$&&&&&&&&&&&&&&",
"&&&&&&&&&&&&&& XXXX$$*$$*****$$&&&&&&&&&&&&&&&&",
"&&&&&&&&&&&&   XXXXXXX$$***$$&&&&&&&&&&&&&&&&&&",
"&&&&&&&&&&&&&  XXXXXXX$$$$$$$&&&&&&&&&&&&&&&&&&",
"&&&&&&&&&&&&&  XXXXX  $$$$$$&&&&&&&&&&&&&&&&&&&",
"&&&&&&&&&&&&&   X#     $&&&&&&&&&&&&&&&&&&&&&&&",
"&&&&&&&&&&&&&&  ##   &&&&&&&&&&&&&&&&&&&&&&&&&&",
"&&&&&&&&&&&&&&  #  &&&&&&&&&&&&&&&&&&&&&&&&&&&%"
};
