/* XPM */
static char *_f27923bb8704bd4a823d66bf09f7e3aLF3yt4kwG48ElPer[] = {
/* columns rows colors chars-per-pixel */
"47 47 14 1 ",
"  c black",
". c #500000",
"X c #885818",
"o c #B02860",
"O c #F84070",
"+ c #F87068",
"@ c #D8A038",
"# c #F8D870",
"$ c #203088",
"% c #0060B8",
"& c #408098",
"* c #80D8C8",
"= c #F8D0C0",
"- c #F8F8F8",
/* pixels */
"%%%%%%%%%%%%%%%%%%%%%%%%%%%%%%%%%%%%%%%%%%%%%%%",
"%%%%%%%%%%%%%%%%%%%%%............%%%%%%%%%%%%%%",
"%%%%%%%%%%%%%%%%%%%%%............%%%%%%%%%%%%%%",
"%%%%%%%%%%%%%%%%%....OOOOOOO###OO..%%%%%%%%%%%%",
"%%%%%%%%%%%%%%%%%....OOOOOOO###OO..%%%%%%%%%%%%",
"%%%%%%%%%%%%%%%%%....OOOOOOO###OO..%%%%%%%%%%%%",
"%%%%%%%%%%%%%%...OOOOooooo@@###--..%%%%%%%%%%%%",
"%%%%%%%%%%%%%%...OOOOooooo@@###--..%%%%%%%%%%%%",
"%%%%%%%%%%%%..oooOOooooo              %%%%%%%%%",
"%%%%%%%%%%%%..oooOOooooo              %%%%%%%%%",
"%%%%%%%%%%..ooooooo                     %%%%%%%",
"%%%%%%%%%%..ooooooo                     %%%%%%%",
"%%%%%%%%%%..==       +++  ++   ++%%%%%%%%%%%%%%",
"%%%%%%%%%%..==       +++  ++   ++%%%%%%%%%%%%%%",
"%%%%%%%%%%..==       +++  ++   ++%%%%%%%%%%%%%%",
"%%%%%%%%..==XX===  ++===  ==   ==XXXXX%%%%%%%%%",
"%%%%%%%%..==XX===  ++===  ==   ==XXXXX%%%%%%%%%",
"%%%%%%%%..++XX===    =================XX%%%%%%%",
"%%%%%%%%..++XX===    =================XX%%%%%%%",
"%%%%%%%%..++XX===    =================XX%%%%%%%",
"%%%%%%%%..  ++===  =====  ++++++++++++XX%%%%%%%",
"%%%%%%%%..  ++===  =====  ++++++++++++XX%%%%%%%",
"%%%%%%%%%%    +++++==                 %%%%%%%%%",
"%%%%%%%%%%    +++++==                 %%%%%%%%%",
"%%%%%%%%%%%%  XXX+++++++++         %%%%%%%%%%%%",
"%%%%%%%%%%%%  XXX+++++++++         %%%%%%%%%%%%",
"%%%%%%%%%%%%  XXX+++++++++         %%%%%%%%%%%%",
"%%%%%%%%%%%%%%$$$XXXXXXXXXXX$$$XXXXXXX%%%%%%%%%",
"%%%%%%%%%%%%%%$$$XXXXXXXXXXX$$$XXXXXXX%%%%%%%%%",
"%%%%%%%%%%%%%%$$$&&**XXXOOOOOOO..-----XXXX%%%%%",
"%%%%%%%%%%%%%%$$$&&**XXXOOOOOOO..-----XXXX%%%%%",
"%%%%%%%%%%    &&&&&**XXXOOOOOOO..-------XX%%%%%",
"%%%%%%%%%%    &&&&&**XXXOOOOOOO..-------XX%%%%%",
"%%%%%%%%  XXXX&&&&&&&***XXXXXXX..-------XX%%%%%",
"%%%%%%%%  XXXX&&&&&&&***XXXXXXX..-------XX%%%%%",
"%%%%%%%%  XXXX&&&&&&&***XXXXXXX..-------XX%%%%%",
"%%%%%   ##XXXX$$$&&&&&&&**-----&&XXXXXXX%%%%%%%",
"%%%%%   ##XXXX$$$&&&&&&&**-----&&XXXXXXX%%%%%%%",
"%%%%%         $$$$$&&&&&&&&&$$$%%%%%%%%%%%%%%%%",
"%%%%%         $$$$$&&&&&&&&&$$$%%%%%%%%%%%%%%%%",
"%%%%%%%%%%%%%%%%%$$$$$$$$$$$%%%%%%%%%%%%%%%%%%%",
"%%%%%%%%%%%%%%%%%$$$$$$$$$$$%%%%%%%%%%%%%%%%%%%",
"%%%%%%%%%%%%%%%%%$$$$$$$$$$$%%%%%%%%%%%%%%%%%%%",
"%%%%%%%%%%%%%%%%%%%%%%%%%%%%%%%%%%%%%%%%%%%%%%%",
"%%%%%%%%%%%%%%%%%%%%%%%%%%%%%%%%%%%%%%%%%%%%%%%",
"%%%%%%%%%%%%%%%%%%%%%%%%%%%%%%%%%%%%%%%%%%%%%%%",
"%%%%%%%%%%%%%%%%%%%%%%%%%%%%%%%%%%%%%%%%%%%%%%%"
};
