/* XPM */
static char *f13838afbeb3495d8bc531f5e2112dfdB1K56ahQ7iZFJEsv[] = {
/* columns rows colors chars-per-pixel */
"47 47 14 1 ",
"  c black",
". c #500000",
"X c #885818",
"o c #B02860",
"O c #F84070",
"+ c #F87068",
"@ c #D8A038",
"# c #F8D870",
"$ c #203088",
"% c #0060B8",
"& c #408098",
"* c #80D8C8",
"= c #F8D0C0",
"- c #F8F8F8",
/* pixels */
"%%%%%%%%%%%%%%%%%%%%%%%%...%%%%%%%%%%%%%%%%%%%%",
"%%%%%%%%%%%%%%%%%%%%.......%%%%%%%%%%%%%%%%%%%%",
"%%%%%%%%%%%%%%%%%........OO...%%%%%%%%%%%%%%%%%",
"%%%%%%%%%%%%%%%%......O##OO...%%%%%%%%%%%%%%%%%",
"%%%%%%%%%%%%%%%%..OOOOO##O--..%%%%%%%%%%%%%%%%%",
"%%%%%%%%%%%%%%%.OOOOOOO###--..%  %%%%%%%%%%%%%%",
"%%%%%%%%%%%%.....OOoo@@###--     %%%%%%%%%%%%%%",
"%%%%%%%%%%%%....Oooooo@@            %%%%%%%%%%%",
"%%%%%%%%%%%%OOOOOoooo               %%%%%%%%%%%",
"%%%%%%%%%%...OOOOooo             %%%%%%%%%%%%%%",
"%%%%%%%%%%%..OOooooo          %%%%%%%%%%%%%%%%%",
"%%%%%%%%%%.ooOOOoo         +++%%%%%%%%%%%%%%%%%",
"%%%%%%%%%..ooOoo       ++   ++%XXXX%%%%%%%%%%%%",
"%%%%%%%%%..ooooo   ++  ++   ==XXXXX%X%%%%%%%%%%",
"%%%%%%%..ooooooo   ++   ==  ===X===XXX%%%%%%%%%",
"%%%%%%%...oo       ++=  ==  ========XX%%%%%%%%%",
"%%%%%%%%..==     ++===  ==========++XX%%%%%%%%%",
"%%%%%%%%..=== =  +++==========++++++XXX%%%%%%%%",
"%%%%%%%%..XXX==     =======++++++++  %%%%%%%%%%",
"%%%%%%%..==XX===    ===  +++++++     %%%%%%%%%%",
"%%%%%%...==XX===    ===  +++        %%%%%%%%%%%",
"%%%%%%%..++XXX==  =====            %%%%%%%%%%%%",
"%%%%%%%..+++X+==   ==              %%%%%%%%%%%%",
"%%%%%%%...  ++=== +==             XXXX%%%%X%%%%",
"%%%%%%%%..  ++ ++++=== +++     XXXXXXXXXXXX%%%%",
"%%%%%%%%..     ++++++++++++XX$$XXXX----XXXX%%%%",
"%%%%%%%%%%%    +XX++++++XXXXX$$O..-----X-XXX%%%",
"%%%%%%%%%%% %  XXX++XXXXXXXXOOOO..-------XXX%%%",
"%%%%%%%%%%%%%   X$XXXXXXXOOOOOOO...-------XX%%%",
"%%%%%%%%%%%%%%%%$$XXX**XXXOOOOOO...-------XX%%%",
"%%%%%%%%%%%%%%%%$$$&&**XXXOOOOOOO..-------%%%%%",
"%%%%%%%%%%%%%%%%%$$&&***XXOOOOOXX..----XXXX%%%%",
"%%%%%%%%%%%%%%%%%$$&&&**XXOXXXXXX..&XXXXXXX%%%%",
"%%%%%%%%%%%%%%%$$&&&&&*****XXXXX--&&XXXX%%%%%%%",
"%%%%%%%%%%%%   $$&&&&&&&&**XX-----&&X%%%%%%%%%%",
"%%%%%%%%       $$$&&&&&&&&&***---$%%%%%%%%%%%%%",
"%%%%%%%%%       $$&&&&&&&&&&**&&$$%%%%%%%%%%%%%",
"%%%%%%%%%  ###  $$&&&&&&&&&&&&&&$$$%%%%%%%%%%%%",
"%%%%%%%%%   ## X$$$&&&&&&&&&&&&$$%%%%%%%%%%%%%%",
"%%%%%%%%%% %  XX$$$$$&&&&&&&$$$$$%%%%%%%%%%%%%%",
"%%%%%%%%%%%%   XXXX$$$&&$$$$$$$$$%%%%%%%%%%%%%%",
"%%%%%%%%%%%%XXXXXXX$$$$$$$$$$%%%%%%%%%%%%%%%%%%",
"%%%%%%%%%%   XXXX   $$$$$$%%%%%%%%%%%%%%%%%%%%%",
"%%%%%%%%%%%  X#     $$%%%%%%%%%%%%%%%%%%%%%%%%%",
"%%%%%%%%%%%  ###   %%%%%%%%%%%%%%%%%%%%%%%%%%%%",
"%%%%%%%%%%%   # %%%%%%%%%%%%%%%%%%%%%%%%%%%%%%%",
"%%%%%%%%%%%%    %%%%%%%%%%%%%%%%%%%%%%%%%%%%%%%"
};
